<svg id="_x30_1" enable-background="new 0 0 496 464.001" height="300" viewBox="0 0 496 464.001" width="300" xmlns="http://www.w3.org/2000/svg" version="1.1" xmlns:xlink="http://www.w3.org/1999/xlink" xmlns:svgjs="http://svgjs.dev/svgjs"><g width="100%" height="100%" transform="matrix(1,0,0,1,0,0)"><g><path d="m40 128.001c-4.411 0-8-3.589-8-8v-56h-16v56c0 13.233 10.767 24 24 24h28.686l-10.343 10.343 11.314 11.314 29.656-29.657-29.656-29.657-11.314 11.314 10.343 10.343z" fill="#c9f21d" fill-opacity="1" data-original-color="#000000ff" stroke="none" stroke-opacity="1"/><path d="m69.657 229.658 29.656-29.657-29.656-29.657-11.314 11.314 10.343 10.343h-28.686c-13.233 0-24 10.767-24 24v56h16v-56c0-4.411 3.589-8 8-8h28.686l-10.343 10.343z" fill="#c9f21d" fill-opacity="1" data-original-color="#000000ff" stroke="none" stroke-opacity="1"/><path d="m437.657 154.344-10.343-10.343h28.686c13.233 0 24-10.767 24-24v-56h-16v56c0 4.411-3.589 8-8 8h-28.686l10.343-10.343-11.314-11.314-29.656 29.657 29.656 29.657z" fill="#c9f21d" fill-opacity="1" data-original-color="#000000ff" stroke="none" stroke-opacity="1"/><path d="m437.657 218.344-10.343-10.343h28.686c4.411 0 8 3.589 8 8v56h16v-56c0-13.233-10.767-24-24-24h-28.686l10.343-10.343-11.314-11.314-29.656 29.657 29.656 29.657z" fill="#c9f21d" fill-opacity="1" data-original-color="#000000ff" stroke="none" stroke-opacity="1"/><path d="m150.019 117.066-1.438 4.035-20.581 5.146v51.508l20.58 5.146 1.438 4.035c1.167 3.272 2.511 6.515 3.995 9.639l1.841 3.873-10.918 18.195 36.421 36.422 18.195-10.917 3.872 1.84c3.126 1.484 6.369 2.829 9.641 3.995l4.035 1.438 5.146 20.58h51.508l5.083-20.332 17.831-7.39 17.975 10.785 36.421-36.422-10.918-18.195 1.841-3.873c1.484-3.124 2.828-6.366 3.995-9.639l1.438-4.035 20.58-5.146v-51.508l-20.58-5.146-1.438-4.035c-1.167-3.272-2.511-6.515-3.995-9.639l-1.841-3.873 10.918-18.195-36.421-36.422-18.195 10.917-3.872-1.84c-3.126-1.484-6.369-2.829-9.641-3.995l-4.035-1.438-5.146-20.58h-51.508l-5.146 20.58-4.035 1.438c-3.271 1.166-6.515 2.511-9.641 3.995l-3.872 1.84-18.195-10.917-36.421 36.422 10.918 18.195-1.841 3.873c-1.484 3.126-2.827 6.368-3.994 9.64zm97.981-53.065c48.523 0 88 39.477 88 88s-39.477 88-88 88-88-39.477-88-88 39.477-88 88-88z" fill="#c9f21d" fill-opacity="1" data-original-color="#000000ff" stroke="none" stroke-opacity="1"/><path d="m288 136.001c0-4.411-3.589-8-8-8s-8 3.589-8 8v6.95c2.576.692 5.261 1.05 8 1.05 4.411 0 8-3.589 8-8z" fill="#c9f21d" fill-opacity="1" data-original-color="#000000ff" stroke="none" stroke-opacity="1"/><path d="m221.765 432.001h52.47l22.4-32h-97.27z" fill="#c9f21d" fill-opacity="1" data-original-color="#000000ff" stroke="none" stroke-opacity="1"/><path d="m351.678 429.729c-12.174-4.552-29.012-8.194-48.903-10.6l-31.018 44.312c24.464-1.159 46.918-4.101 64.813-8.575 25.838-6.46 31.431-13.476 31.431-14.866-.001-.826-2.905-5.254-16.323-10.271z" fill="#c9f21d" fill-opacity="1" data-original-color="#000000ff" stroke="none" stroke-opacity="1"/><path d="m240 153.372v70.174c2.628.292 5.295.455 8 .455s5.372-.163 8-.455v-70.174c-2.849-1.717-5.53-3.751-8-6.084-2.47 2.333-5.151 4.367-8 6.084z" fill="#c9f21d" fill-opacity="1" data-original-color="#000000ff" stroke="none" stroke-opacity="1"/><path d="m112 113.755 24.479-6.12c.417-1.046.848-2.086 1.293-3.119l-12.982-21.637 54.087-54.088 21.637 12.981c1.033-.445 2.074-.876 3.12-1.293l6.12-24.479h76.492l6.12 24.479c1.046.417 2.087.848 3.12 1.293l21.637-12.981 54.087 54.088-12.981 21.637c.445 1.033.876 2.073 1.293 3.119l24.479 6.12v12.305l11.335-11.336c-16.604-65.158-75.626-113.971-145.69-114.714-40.513-.458-79.004 15.283-108.273 44.243-20.077 19.866-33.962 44.118-40.701 70.478l11.328 11.329z" fill="#c9f21d" fill-opacity="1" data-original-color="#000000ff" stroke="none" stroke-opacity="1"/><path d="m304 293.44 4.797-2.097c35.728-15.612 63.282-43.911 78.363-78.242l-13.1-13.1 9.691-9.692-24.229 6.058c-.417 1.046-.848 2.086-1.293 3.119l12.981 21.637-54.087 54.088-21.775-13.064-2.942 1.22-6.159 24.635h-76.492l-6.12-24.479c-1.046-.417-2.087-.848-3.12-1.293l-21.637 12.981-54.087-54.088 12.981-21.637c-.445-1.033-.876-2.073-1.293-3.119l-24.229-6.058 9.691 9.692-13.1 13.101c15.08 34.331 42.635 62.63 78.363 78.242l4.796 2.096v90.561h16v-80h16v80h48v-80h16v80h16z" fill="#c9f21d" fill-opacity="1" data-original-color="#000000ff" stroke="none" stroke-opacity="1"/><path d="m216 128.001c-4.411 0-8 3.589-8 8s3.589 8 8 8c2.739 0 5.424-.357 8-1.05v-6.95c0-4.411-3.589-8-8-8z" fill="#c9f21d" fill-opacity="1" data-original-color="#000000ff" stroke="none" stroke-opacity="1"/><path d="m144.322 429.729c-13.418 5.017-16.322 9.445-16.322 10.272 0 1.391 5.593 8.406 31.431 14.866 17.894 4.473 40.348 7.416 64.813 8.575l-31.018-44.312c-19.892 2.405-36.73 6.048-48.904 10.599z" fill="#c9f21d" fill-opacity="1" data-original-color="#000000ff" stroke="none" stroke-opacity="1"/><path d="m224 219.873v-60.551c-2.616.45-5.291.68-8 .68-13.233 0-24-10.767-24-24s10.767-24 24-24c12.179 0 22.268 9.119 23.799 20.888l8.201-8.201 8.201 8.201c1.531-11.769 11.62-20.888 23.799-20.888 13.233 0 24 10.767 24 24s-10.767 24-24 24c-2.709 0-5.384-.229-8-.68v60.551c27.934-9.907 48-36.584 48-67.872 0-39.701-32.299-72-72-72s-72 32.299-72 72c0 31.288 20.066 57.964 48 67.872z" fill="#c9f21d" fill-opacity="1" data-original-color="#000000ff" stroke="none" stroke-opacity="1"/><path d="m241.966 460.859c1.377 1.968 3.633 3.142 6.034 3.142s4.657-1.174 6.034-3.142l9.001-12.858h-30.07z" fill="#c9f21d" fill-opacity="1" data-original-color="#000000ff" stroke="none" stroke-opacity="1"/><circle cx="24" cy="24.001" r="24" fill="#c9f21d" fill-opacity="1" data-original-color="#000000ff" stroke="none" stroke-opacity="1"/><circle cx="24" cy="312.001" r="24" fill="#c9f21d" fill-opacity="1" data-original-color="#000000ff" stroke="none" stroke-opacity="1"/><circle cx="472" cy="24.001" r="24" fill="#c9f21d" fill-opacity="1" data-original-color="#000000ff" stroke="none" stroke-opacity="1"/><circle cx="472" cy="312.001" r="24" fill="#c9f21d" fill-opacity="1" data-original-color="#000000ff" stroke="none" stroke-opacity="1"/><path d="m144 336.001h-32v-32h-16v32h-32v16h32v32h16v-32h32z" fill="#c9f21d" fill-opacity="1" data-original-color="#000000ff" stroke="none" stroke-opacity="1"/><path d="m48 416.001h-16v16h-16v16h16v16h16v-16h16v-16h-16z" fill="#c9f21d" fill-opacity="1" data-original-color="#000000ff" stroke="none" stroke-opacity="1"/><path d="m432 336.001h-32v-32h-16v32h-32v16h32v32h16v-32h32z" fill="#c9f21d" fill-opacity="1" data-original-color="#000000ff" stroke="none" stroke-opacity="1"/><path d="m464 416.001h-16v16h-16v16h16v16h16v-16h16v-16h-16z" fill="#c9f21d" fill-opacity="1" data-original-color="#000000ff" stroke="none" stroke-opacity="1"/></g></g></svg>