<svg id="Layer_1" enable-background="new 0 0 68 68" height="300" viewBox="0 0 68 68" width="300" xmlns="http://www.w3.org/2000/svg" version="1.1" xmlns:xlink="http://www.w3.org/1999/xlink" xmlns:svgjs="http://svgjs.dev/svgjs"><g width="100%" height="100%" transform="matrix(1,0,0,1,0,0)"><g id="Data_Analysis"><g><path d="m64.0023804 53.4719238h-.2574463v-30.854248c0-3.5900879-2.9299927-6.5100098-6.5200195-6.5100098h-3.4599609v-7.9299316c0-2.5-2.0300293-4.5200195-4.5300293-4.5200195h-29.6099854c-2.5 0-4.5200195 2.0200195-4.5200195 4.5200195v7.9299316h-4.3300171c-3.5899658 0-6.5199585 2.9199219-6.5199585 6.5100098v30.854248h-.2572632c-1.0957642 0-1.9976807.9016114-1.9976807 1.9973145v3.559082c0 .6203613.28125 1.192627.7758179 1.5803223l4.256897 3.3166504c.3491821.2712402.7854614.4169922 1.2218018.4169922h51.4910278c.4362793 0 .8726196-.145752 1.2218018-.4169922l4.256897-3.3166504c.4945067-.3779297.7757567-.959961.7757567-1.5803223v-3.559082c0-1.0957031-.9017334-1.9973145-1.9976196-1.9973145zm-57.7474366-30.854248c0-2.4899902 2.0299683-4.5100098 4.5199585-4.5100098h4.3300171v26.8601074c0 2.5 2.0200195 4.5297852 4.5200195 4.5297852h29.6099854c2.5 0 4.5300293-2.0297852 4.5300293-4.5297852v-26.8601074h3.4599609c2.4899902 0 4.5200195 2.0200195 4.5200195 4.5100098v30.8200684h-19.7000121c-.7000122 0-1.3699951.3798828-1.7399902.9899902l-1.6400147 2.6799316-9.3599854-.0200195-1.5999756-2.6699219c-.3700562-.6000977-1.0300293-.9799805-1.7400513-.9799805h-19.7099609zm13.3999634 21.290039v-5.3701172c0-.4699707.3900146-.8598633.8699951-.8598633h2.8700562c.4799805 0 .8699951.3898926.8699951.8598633v5.3701172c0 .4799805-.3900146.869873-.8699951.869873h-2.8700562c-.4799804.0000001-.8699951-.3898925-.8699951-.869873zm8.3200074 0v-10.3100585c0-.4799805.3800049-.8701172.8599854-.8701172h2.8800049c.4700317 0 .8600464.3901367.8600464.8701172v10.3100586c0 .4799805-.3900146.869873-.8600464.869873h-2.8800049c-.4799806 0-.8599854-.3898926-.8599854-.8698731zm22.5200195-22.4799804c0 .5498047-.4400024 1-1 1h-8.4299927c-.5499878 0-1-.4501953-1-1 0-.5600586.4500122-1 1-1h8.4299927c.5599975 0 1 .4399414 1 1zm-1.289978 7.8100586v14.6699219c0 .4799805-.3900146.869873-.8700562.869873h-2.8699951c-.4799805 0-.8699951-.3898926-.8699951-.869873v-14.6699219c0-.4799805.3900146-.8701172.8699951-.8701172h2.8699951c.4800415 0 .8700562.3901367.8700562.8701172zm-12.920044 7.2700195c0-.4802246.3900146-.8701172.8699951-.8701172h2.8699951c.4800415 0 .8700562.3898926.8700562.8701172v7.3999023c0 .4799805-.3900146.869873-.8700562.869873h-2.8699951c-.4799805 0-.8699951-.3898926-.8699951-.869873zm14.210022-19.4001465c0 .5500488-.4400024 1-1 1h-8.4299927c-.5499878 0-1-.4499512-1-1s.4500122-1 1-1h8.4299927c.5599975 0 1 .4499512 1 1zm-9.4299927-5.3200683h8.4299927c.5599976 0 1 .4501953 1 1 0 .5500488-.4400024 1-1 1h-8.4299927c-.5499878 0-1-.4499512-1-1 0-.5498047.4500122-1 1-1zm-13.2700195-2.7299805c1.8500366 0 3.5499878.6000977 4.9400024 1.6000977l1.6699829-2.1999512c.1799927-.25.4800415-.4001465.7900391-.4001465h3.3499756c.5599976 0 1 .4501953 1 1 0 .5500488-.4400024 1-1 1h-2.8499756l-1.4899902 1.9599609c1.2240868 1.424139 2.0199585 3.3564491 2.0199585 5.4702148 0 4.6985798-3.8279762 8.4299316-8.4299927 8.4299316-1.1400146 0-2.2299805-.2299805-3.2199707-.6501465l-1.2700195 1.670166c-.1900024.25-.4799805.3999023-.789978.3999023h-3.3500367c-.5599976 0-1-.4499512-1-1s.4400024-1 1-1h2.8500366l.7999878-1.0600586c-2.473608-1.8070374-3.6389065-4.78792-3.4400024-7.1699219.125309-4.2574699 3.7521267-8.0500486 8.4199829-8.0500486z" fill="#c9f21d" fill-opacity="1" data-original-color="#000000ff" stroke="none" stroke-opacity="1"/><path d="m24.0249023 22.6877441.5300293-.6999512c.3300171-.4401855.960022-.5300293 1.4000244-.1901855.4400024.3300781.5199585.9602051.1900024 1.4001465l-.3100586.4099121c.6200562.1999512 1.2800293.3100586 1.960022.3100586 3.25 0 5.9400024-2.420166 6.3699951-5.5500488h-6.3699951c-.5073719 0-.8900146-.4140568-.8900146-.8798828 0-.7071571 0-6.4643402 0-6.3601074-3.1548824.4255066-5.4367771 3.1538553-5.5199585 5.9799805-.2608356 1.5618343.6213894 4.1182422 2.6399536 5.580078z" fill="#c9f21d" fill-opacity="1" data-original-color="#000000ff" stroke="none" stroke-opacity="1"/></g></g></g></svg>