<svg xmlns="http://www.w3.org/2000/svg" viewBox="0 0 48 48" width="300" height="300" version="1.1" xmlns:xlink="http://www.w3.org/1999/xlink" xmlns:svgjs="http://svgjs.dev/svgjs"><g width="100%" height="100%" transform="matrix(1,0,0,1,0,0)"><g id="Layer_37" data-name="Layer 37"><path d="M33,37a2.0026,2.0026,0,0,0-2-2H17a2.00229,2.00229,0,0,0-2,2v1.25H33Z" fill="#c9f21d" fill-opacity="1" data-original-color="#000000ff" stroke="none" stroke-opacity="1"/><path d="M15,39.75V43a2.00229,2.00229,0,0,0,2,2H31a2.0026,2.0026,0,0,0,2-2V39.75Z" fill="#c9f21d" fill-opacity="1" data-original-color="#000000ff" stroke="none" stroke-opacity="1"/><path d="M31.99805,16a1,1,0,0,1-.81836-1.57324L39.18,3.41232A1,1,0,0,1,39.989,3H44a1,1,0,0,1,0,2H40.52051L32.81836,15.57324A.99781.99781,0,0,1,31.99805,16Z" fill="#c9f21d" fill-opacity="1" data-original-color="#000000ff" stroke="none" stroke-opacity="1"/><path d="M44,8.5H42a1,1,0,0,1,0-2h2a1,1,0,0,1,0,2Z" fill="#c9f21d" fill-opacity="1" data-original-color="#000000ff" stroke="none" stroke-opacity="1"/><path d="M7,37H4a1,1,0,0,1,0-2H6.54l5.6206-6.56055a.99976.99976,0,1,1,1.51856,1.30078L7.75928,36.65039A1.00015,1.00015,0,0,1,7,37Z" fill="#c9f21d" fill-opacity="1" data-original-color="#000000ff" stroke="none" stroke-opacity="1"/><path d="M6,33.5H4a1,1,0,0,1,0-2H6a1,1,0,0,1,0,2Z" fill="#c9f21d" fill-opacity="1" data-original-color="#000000ff" stroke="none" stroke-opacity="1"/><path d="M11,5H4A1,1,0,0,1,4,3h7a1,1,0,0,1,0,2Z" fill="#c9f21d" fill-opacity="1" data-original-color="#000000ff" stroke="none" stroke-opacity="1"/><path d="M8,8.5H4a1,1,0,0,1,0-2H8a1,1,0,0,1,0,2Z" fill="#c9f21d" fill-opacity="1" data-original-color="#000000ff" stroke="none" stroke-opacity="1"/><path d="M44,35H37a1,1,0,0,1,0-2h7a1,1,0,0,1,0,2Z" fill="#c9f21d" fill-opacity="1" data-original-color="#000000ff" stroke="none" stroke-opacity="1"/><path d="M44,38.5H40a1,1,0,0,1,0-2h4a1,1,0,0,1,0,2Z" fill="#c9f21d" fill-opacity="1" data-original-color="#000000ff" stroke="none" stroke-opacity="1"/><path d="M23,16.31012a.795.795,0,0,0,0,1.37976Z" fill="#c9f21d" fill-opacity="1" data-original-color="#000000ff" stroke="none" stroke-opacity="1"/><path d="M33.75,16.79A9.98917,9.98917,0,1,0,34,19,9.94677,9.94677,0,0,0,33.75,16.79Zm-1.71,4.97A8.49468,8.49468,0,0,1,24,27.5a1.00291,1.00291,0,0,1-1-1V23.85A3.067,3.067,0,0,1,20.6001,21a1,1,0,0,1,2,0A.87281.87281,0,0,0,23,21.69V19.85A3.067,3.067,0,0,1,20.6001,17,3.067,3.067,0,0,1,23,14.15V12.58a6.49835,6.49835,0,0,0-5.14014,4.3,1.00528,1.00528,0,0,1-.9497.68,1.12707,1.12707,0,0,1-.32007-.05A1.00692,1.00692,0,0,1,15.96,16.24,8.49468,8.49468,0,0,1,24,10.5a1.00291,1.00291,0,0,1,1,1v2.65A3.05553,3.05553,0,0,1,27.3999,17a1,1,0,0,1-2,0A.8585.8585,0,0,0,25,16.31v1.84A3.05553,3.05553,0,0,1,27.3999,21,3.05553,3.05553,0,0,1,25,23.85v1.57a6.49835,6.49835,0,0,0,5.14014-4.3,1.0024,1.0024,0,1,1,1.8999.64Z" fill="#c9f21d" fill-opacity="1" data-original-color="#000000ff" stroke="none" stroke-opacity="1"/><path d="M37.91016,11.12,35.24,14.8a12.05,12.05,0,1,1-2.95-4.46l2.37012-3.26A15.99022,15.99022,0,1,0,16.45988,33.0946,1.00137,1.00137,0,0,1,17,33.97535V36a1.00294,1.00294,0,0,0,1,1H30a1.00294,1.00294,0,0,0,1-1V33.97393a.99893.99893,0,0,1,.539-.87875A15.94968,15.94968,0,0,0,37.91016,11.12Z" fill="#c9f21d" fill-opacity="1" data-original-color="#000000ff" stroke="none" stroke-opacity="1"/><path d="M25,21.69025a.79517.79517,0,0,0,0-1.3805Z" fill="#c9f21d" fill-opacity="1" data-original-color="#000000ff" stroke="none" stroke-opacity="1"/></g></g></svg>