<svg xmlns="http://www.w3.org/2000/svg" width="300" height="300" viewBox="0 0 48 48" fill="none" version="1.1" xmlns:xlink="http://www.w3.org/1999/xlink" xmlns:svgjs="http://svgjs.dev/svgjs"><g width="100%" height="100%" transform="matrix(1,0,0,1,0,0)"><path d="M23.5 21.3749V32.6251C23.2494 32.8133 22.8388 33 22.5 33C21.7754 33 21.1688 32.4852 21.03 31.8008L21 31.653V31.5C21 31.2239 21.2239 31 21.5 31V30C20.8473 30 20.2399 30.4177 20.0336 30.9997C18.9291 30.9997 18 30.1046 18 29C18 28.4871 18.1917 28.0214 18.509 27.6669L19.1059 27L18.509 26.3331C18.1917 25.9786 18 25.5129 18 25C18 23.8954 18.929 23.0003 20.0336 23.0003C20.2398 23.5823 20.8473 24 21.5 24V23C21.2239 23 21 22.7761 21 22.5V22.347L21.03 22.1992C21.1688 21.5148 21.7754 21 22.5 21C22.8388 21 23.2494 21.1867 23.5 21.3749Z" fill="#c9f21d" fill-opacity="1" data-original-color="#000000ff" stroke="none" stroke-opacity="1"/><path d="M27.9664 30.9997C27.7601 30.4177 27.1527 30 26.5 30V31C26.7761 31 27 31.2239 27 31.5V31.653L26.97 31.8008C26.8312 32.4852 26.2246 33 25.5 33C25.1612 33 24.7506 32.8133 24.5 32.6251V21.3749L24.5039 21.3749C24.7545 21.1867 25.1612 21 25.5 21C26.2246 21 26.8312 21.5148 26.97 22.1992L27 22.347V22.5C27 22.7761 26.7761 23 26.5 23V24C27.1527 24 27.7602 23.5823 27.9664 23.0003C29.071 23.0003 30 23.8954 30 25C30 25.5129 29.8083 25.9786 29.491 26.3331L28.8941 27L29.491 27.6669C29.8083 28.0214 30 28.4871 30 29C30 30.1046 29.0709 30.9997 27.9664 30.9997Z" fill="#c9f21d" fill-opacity="1" data-original-color="#000000ff" stroke="none" stroke-opacity="1"/><path fill-rule="evenodd" clip-rule="evenodd" d="M25.5 5.5C25.5 6.15311 25.0826 6.70873 24.5 6.91465V11.9996C24.7047 12.0718 24.8969 12.1898 25.0607 12.3536L30 17.2929V10.5C30 10.2239 30.2239 10 30.5 10H37.0854C37.2913 9.4174 37.8469 9 38.5 9C39.3284 9 40 9.67157 40 10.5C40 11.3284 39.3284 12 38.5 12C37.8469 12 37.2913 11.5826 37.0854 11H31V18.2929L35.8536 23.1464C36.0488 23.3417 36.0488 23.6583 35.8536 23.8536C35.6583 24.0488 35.3417 24.0488 35.1464 23.8536L33 21.7071V26H37.0854C37.2913 25.4174 37.8469 25 38.5 25C39.3284 25 40 25.6716 40 26.5C40 27.3284 39.3284 28 38.5 28C37.8469 28 37.2913 27.5826 37.0854 27H33V34C33 35.1046 32.1046 36 31 36V37H37.0854C37.2913 36.4174 37.8469 36 38.5 36C39.3284 36 40 36.6716 40 37.5C40 38.3284 39.3284 39 38.5 39C37.8469 39 37.2913 38.5826 37.0854 38H30.5C30.2239 38 30 37.7761 30 37.5V36H24.5V41.0854C25.0826 41.2913 25.5 41.8469 25.5 42.5C25.5 43.3284 24.8284 44 24 44C23.1716 44 22.5 43.3284 22.5 42.5C22.5 41.8469 22.9174 41.2913 23.5 41.0854V36H18V37.5C18 37.7761 17.7761 38 17.5 38H10.9146C10.7087 38.5826 10.1531 39 9.5 39C8.67157 39 8 38.3284 8 37.5C8 36.6716 8.67157 36 9.5 36C10.1531 36 10.7087 36.4174 10.9146 37H17V36C15.8954 36 15 35.1046 15 34V27H10.9146C10.7087 27.5826 10.1531 28 9.5 28C8.67157 28 8 27.3284 8 26.5C8 25.6716 8.67157 25 9.5 25C10.1531 25 10.7087 25.4174 10.9146 26H15V21.7071L12.8536 23.8536C12.6583 24.0488 12.3417 24.0488 12.1464 23.8536C11.9512 23.6583 11.9512 23.3417 12.1464 23.1464L17 18.2929V11H10.9146C10.7087 11.5826 10.1531 12 9.5 12C8.67157 12 8 11.3284 8 10.5C8 9.67157 8.67157 9 9.5 9C10.1531 9 10.7087 9.4174 10.9146 10H17.5C17.7761 10 18 10.2239 18 10.5V17.2929L22.9393 12.3536C23.1031 12.1898 23.2953 12.0718 23.5 11.9996V6.91465C22.9174 6.70873 22.5 6.15311 22.5 5.5C22.5 4.67157 23.1716 4 24 4C24.8284 4 25.5 4.67157 25.5 5.5ZM24.5 5.5C24.5 5.77614 24.2761 6 24 6C23.7239 6 23.5 5.77614 23.5 5.5C23.5 5.22386 23.7239 5 24 5C24.2761 5 24.5 5.22386 24.5 5.5ZM9.5 10C9.77614 10 10 10.2239 10 10.5C10 10.7761 9.77614 11 9.5 11C9.22386 11 9 10.7761 9 10.5C9 10.2239 9.22386 10 9.5 10ZM10 26.5C10 26.7761 9.77614 27 9.5 27C9.22386 27 9 26.7761 9 26.5C9 26.2239 9.22386 26 9.5 26C9.77614 26 10 26.2239 10 26.5ZM38.5 27C38.7761 27 39 26.7761 39 26.5C39 26.2239 38.7761 26 38.5 26C38.2239 26 38 26.2239 38 26.5C38 26.7761 38.2239 27 38.5 27ZM10 37.5C10 37.7761 9.77614 38 9.5 38C9.22386 38 9 37.7761 9 37.5C9 37.2239 9.22386 37 9.5 37C9.77614 37 10 37.2239 10 37.5ZM38.5 38C38.7761 38 39 37.7761 39 37.5C39 37.2239 38.7761 37 38.5 37C38.2239 37 38 37.2239 38 37.5C38 37.7761 38.2239 38 38.5 38ZM38.5 11C38.7761 11 39 10.7761 39 10.5C39 10.2239 38.7761 10 38.5 10C38.2239 10 38 10.2239 38 10.5C38 10.7761 38.2239 11 38.5 11ZM24.5 42.5C24.5 42.7761 24.2761 43 24 43C23.7239 43 23.5 42.7761 23.5 42.5C23.5 42.2239 23.7239 42 24 42C24.2761 42 24.5 42.2239 24.5 42.5ZM22.5 34C21.2905 34 20.2316 33.1411 20 32C18.3431 32 17 30.6569 17 29C17 28.2316 17.2889 27.5308 17.7639 27C17.2889 26.4692 17 25.7684 17 25C17 23.3431 18.3431 22 20 22C20.2316 20.8589 21.2905 20 22.5 20C23.0628 20 23.5822 20.186 24 20.4998C24.4178 20.186 24.9372 20 25.5 20C26.7095 20 27.7684 20.8589 28 22C29.6569 22 31 23.3431 31 25C31 25.7684 30.7111 26.4692 30.2361 27C30.7111 27.5308 31 28.2316 31 29C31 30.6569 29.6569 32 28 32C27.7684 33.1411 26.7095 34 25.5 34C24.9372 34 24.4178 33.814 24 33.5002C23.5822 33.814 23.0628 34 22.5 34Z" fill="#c9f21d" fill-opacity="1" data-original-color="#000000ff" stroke="none" stroke-opacity="1"/></g></svg>