<svg id="Layer_1" enable-background="new 0 0 66 66" viewBox="0 0 66 66" xmlns="http://www.w3.org/2000/svg" width="300" height="300" version="1.1" xmlns:xlink="http://www.w3.org/1999/xlink" xmlns:svgjs="http://svgjs.dev/svgjs"><g width="100%" height="100%" transform="matrix(1,0,0,1,0,0)"><g><g><g><path d="m26.81 22.82c-1.36 0-2.47 1.11-2.47 2.47v1.08h4.95v-1.07c-.01-1.37-1.12-2.48-2.48-2.48z" fill="#c9f21d" fill-opacity="1" data-original-color="#000000ff" stroke="none" stroke-opacity="1"/></g><g><path d="m33 13.09c-7.33 0-13.29 5.96-13.29 13.29s5.96 13.28 13.29 13.28 13.29-5.96 13.29-13.29-5.96-13.28-13.29-13.28zm-1.87 17.76c0 .51-.41.93-.93.93-.51 0-.93-.41-.93-.93v-2.62h-4.95v2.62c0 .51-.41.93-.93.93-.51 0-.93-.41-.93-.93v-5.55c0-2.38 1.94-4.32 4.32-4.32s4.33 1.94 4.33 4.32v5.55zm5.14-3.55h-1.35v3.55c0 .51-.41.93-.93.93-.51 0-.93-.41-.93-.93v-8.95c0-.51.41-.93.93-.93h2.28c1.74 0 3.16 1.42 3.16 3.16.01 1.75-1.41 3.17-3.16 3.17zm7.25-5v8.15c0 .51-.41.93-.93.93-.51 0-.93-.41-.93-.93v-8.15c0-.51.41-.93.93-.93.51 0 .93.42.93.93z" fill="#c9f21d" fill-opacity="1" data-original-color="#000000ff" stroke="none" stroke-opacity="1"/></g><g><path d="m36.27 22.82h-1.35v2.63h1.35c.72 0 1.31-.59 1.31-1.31 0-.73-.58-1.32-1.31-1.32z" fill="#c9f21d" fill-opacity="1" data-original-color="#000000ff" stroke="none" stroke-opacity="1"/></g><g><path d="m55.52 22.17-.86-.16c-.88-.18-1.59-.83-1.85-1.7-.39-1.27-.9-2.5-1.51-3.65-.44-.81-.39-1.77.11-2.52l.49-.73c.15-.22.12-.53-.07-.72l-5.15-5.15c-.19-.19-.49-.22-.72-.07l-.73.49c-.74.5-1.71.54-2.52.11-1.14-.61-2.37-1.12-3.65-1.51-.86-.26-1.52-.97-1.69-1.84l-.17-.87c-.05-.26-.29-.46-.55-.46h-7.29c-.27 0-.51.2-.56.46l-.16.86c-.18.88-.83 1.59-1.7 1.85-1.27.39-2.5.9-3.65 1.51-.81.44-1.78.39-2.52-.11l-.73-.49c-.23-.15-.53-.12-.72.07l-5.15 5.15c-.19.19-.22.5-.07.72l.49.73c.5.74.54 1.71.11 2.52-.61 1.14-1.12 2.37-1.51 3.65-.26.87-.97 1.52-1.84 1.69l-.87.17c-.26.05-.46.29-.46.55v7.29c0 .27.2.51.46.55l.86.16c.88.18 1.59.83 1.85 1.7.39 1.27.9 2.5 1.52 3.65.43.81.39 1.77-.11 2.52l-.49.73c-.15.22-.12.53.07.72l5.15 5.15c.19.19.49.22.72.07l.73-.49c.4-.27.86-.41 1.34-.41.4 0 .81.1 1.18.3 1.14.61 2.37 1.12 3.64 1.51.86.26 1.51.97 1.69 1.84l.17.87c.05.26.29.46.56.46h7.29c.27 0 .51-.2.55-.46l.16-.86c.18-.88.83-1.59 1.7-1.85 1.27-.39 2.5-.9 3.65-1.51.81-.44 1.77-.39 2.52.11l.73.49c.23.15.53.12.72-.07l5.15-5.15c.19-.19.22-.5.07-.72l-.5-.72c-.5-.74-.54-1.71-.11-2.52.61-1.14 1.12-2.37 1.51-3.65.26-.86.97-1.52 1.84-1.69l.87-.17c.26-.05.46-.29.46-.55v-7.29c.01-.27-.18-.51-.45-.56zm-22.52 19.34c-8.35 0-15.14-6.79-15.14-15.14s6.79-15.14 15.14-15.14 15.14 6.79 15.14 15.14-6.79 15.14-15.14 15.14z" fill="#c9f21d" fill-opacity="1" data-original-color="#000000ff" stroke="none" stroke-opacity="1"/></g><g><path d="m55.59 22.17-.86-.16c-.88-.18-1.59-.83-1.85-1.7-.39-1.27-.9-2.5-1.51-3.65-.44-.81-.39-1.77.11-2.52l.49-.73c.15-.22.12-.53-.07-.72l-5.15-5.15c-.19-.19-.49-.22-.72-.07l-.73.49c-.74.5-1.71.54-2.52.11-1.14-.61-2.37-1.12-3.65-1.51-.86-.26-1.52-.97-1.69-1.84l-.17-.87c-.05-.26-.29-.46-.55-.46h-7.29c-.27 0-.51.2-.56.46l-.17.86c-.18.88-.83 1.59-1.7 1.85-1.27.39-2.5.9-3.65 1.51-.81.44-1.78.39-2.52-.11l-.73-.49c-.23-.15-.53-.12-.72.07l-5.15 5.15c-.19.19-.22.5-.07.72l.49.73c.5.74.54 1.71.11 2.52-.61 1.14-1.12 2.37-1.51 3.65-.26.87-.97 1.52-1.84 1.69l-.87.17c-.26.05-.46.29-.46.55v7.29c0 .27.2.51.46.55l.86.16c.88.18 1.59.83 1.85 1.7.39 1.27.9 2.5 1.52 3.65.43.81.39 1.77-.11 2.52l-.49.73c-.15.22-.12.53.07.72l5.15 5.15c.19.19.49.22.72.07l.73-.49c.4-.27.86-.41 1.34-.41.4 0 .81.1 1.18.3 1.14.61 2.37 1.12 3.64 1.51.86.26 1.51.97 1.69 1.84l.17.87c.05.26.29.46.56.46h7.29c.27 0 .51-.2.55-.46l.16-.86c.18-.88.83-1.59 1.7-1.85 1.27-.39 2.5-.9 3.65-1.51.81-.44 1.77-.39 2.52.11l.73.49c.23.15.53.12.72-.07l5.15-5.15c.19-.19.22-.5.07-.72l-.49-.73c-.5-.74-.54-1.71-.11-2.52.61-1.14 1.12-2.37 1.51-3.65.26-.86.97-1.52 1.84-1.69l.87-.17c.26-.05.46-.29.46-.55v-7.29c.01-.26-.18-.5-.45-.55zm-22.52 19.34c-8.35 0-15.14-6.79-15.14-15.14s6.79-15.14 15.14-15.14 15.14 6.79 15.14 15.14-6.79 15.14-15.14 15.14z" fill="#c9f21d" fill-opacity="1" data-original-color="#000000ff" stroke="none" stroke-opacity="1"/></g></g><g><g><path d="m36.47 59.13c0 1.92-1.55 3.48-3.48 3.48-1.92 0-3.48-1.56-3.48-3.48 0-1.59 1.08-2.94 2.55-3.35v-4.57h1.85v4.57c1.48.4 2.56 1.76 2.56 3.35z" fill="#c9f21d" fill-opacity="1" data-original-color="#000000ff" stroke="none" stroke-opacity="1"/></g><g><path d="m59.37 59.13c0 1.92-1.55 3.48-3.48 3.48-1.92 0-3.48-1.56-3.48-3.48 0-1.59 1.08-2.94 2.55-3.35v-6.38l-4.9-4.9 1.3-1.31 5.17 5.17c.18.18.27.41.27.65v6.76c1.48.41 2.57 1.77 2.57 3.36z" fill="#c9f21d" fill-opacity="1" data-original-color="#000000ff" stroke="none" stroke-opacity="1"/></g><g><path d="m13.59 59.13c0 1.92-1.56 3.48-3.48 3.48s-3.48-1.56-3.48-3.48c0-1.59 1.08-2.95 2.55-3.35v-6.77c0-.25.09-.48.27-.66l5.24-5.24 1.3 1.31-4.96 4.96v6.39c1.48.41 2.56 1.77 2.56 3.36z" fill="#c9f21d" fill-opacity="1" data-original-color="#000000ff" stroke="none" stroke-opacity="1"/></g></g></g></g></svg>