<svg clip-rule="evenodd" fill-rule="evenodd" height="300" image-rendering="optimizeQuality" shape-rendering="geometricPrecision" text-rendering="geometricPrecision" viewBox="0 0 1706.66 1706.66" width="300" xmlns="http://www.w3.org/2000/svg" xmlns:xodm="http://www.corel.com/coreldraw/odm/2003" version="1.1" xmlns:xlink="http://www.w3.org/1999/xlink" xmlns:svgjs="http://svgjs.dev/svgjs"><g width="100%" height="100%" transform="matrix(1,0,0,1,0,0)"><g id="Layer_x0020_1"><g id="_879339256"><path d="m760.5 1671.6h-215.15c-12.54 0-22.71-10.17-22.71-22.71v-322.85c0-12.54 10.17-22.71 22.71-22.71h215.15z" fill="#c9f21d" fill-opacity="1" data-original-color="#000000ff" stroke="none" stroke-opacity="1"/><path d="m1045.02 1671.6h-215.15c-12.54 0-22.71-10.17-22.71-22.71v-554.89c0-12.54 10.17-22.71 22.71-22.71h215.15z" fill="#c9f21d" fill-opacity="1" data-original-color="#000000ff" stroke="none" stroke-opacity="1"/><path d="m1329.55 1671.6h-215.15c-12.54 0-22.71-10.17-22.71-22.71v-791.97c0-12.54 10.17-22.71 22.71-22.71h215.15z" fill="#c9f21d" fill-opacity="1" data-original-color="#000000ff" stroke="none" stroke-opacity="1"/><path d="m1683.44 1671.6h-284.52c-12.54 0-22.71-10.17-22.71-22.71v-1013.93c0-12.54 10.17-22.71 22.71-22.71h284.52c12.54 0 22.71 10.17 22.71 22.71v1013.93c-.01 12.55-10.18 22.71-22.71 22.71z" fill="#c9f21d" fill-opacity="1" data-original-color="#000000ff" stroke="none" stroke-opacity="1"/><path d="m331.11 1023.32 112.71-105.3c-6.46-12.47-9.75-26.56-9.75-40.59 0-21.22 7.27-41.19 20.45-56.2 14.99-17.07 36.82-26.47 61.49-26.47 6.62 0 12.85.63 18.7 1.82l102.4-150.66c-17.21-15.94-26.04-39.1-26.04-62.1 0-21.24 7.27-41.2 20.45-56.22 14.99-17.07 36.82-26.47 61.5-26.47 50.58 0 78.48 36.79 81.63 75.34l134.36 42.75c3.03-13.81 9.3-26.49 18.37-36.81 14.98-17.07 36.82-26.47 61.49-26.47 14.4 0 26.97 2.99 37.65 8.15l61.36-105c-6.75-8.54-11.96-18.74-15.27-30.33-7.39-25.91-3.17-51.15 11.88-71.09 15.76-20.87 42.5-33.84 69.78-33.84 37.26 0 66.92 22.83 77.39 59.6 7.38 25.91 3.16 51.15-11.89 71.09-15.76 20.86-42.48 33.83-69.78 33.83-8.63 0-16.86-1.23-24.53-3.57l-65.26 111.67c7.02 12.86 10.6 27.56 10.6 42.19 0 21.24-7.26 41.19-20.45 56.22-14.98 17.08-36.82 26.47-61.48 26.47-40.85 0-66.91-24-77.09-53.55l-145.17-46.19c-3.19 6.7-7.24 12.92-12.11 18.47-14.98 17.06-36.81 26.47-61.48 26.47-4.98 0-9.74-.36-14.28-1.04l-103.85 152.8c15.25 15.78 23.07 37.56 23.07 59.19 0 21.24-7.27 41.2-20.45 56.22-14.99 17.06-36.82 26.45-61.49 26.45-15.69 0-29.2-3.54-40.47-9.58l-117.15 109.43c3.67 9.9 5.53 20.48 5.53 31.03 0 21.22-7.27 41.19-20.45 56.2-15 17.07-36.84 26.47-61.5 26.47-53.79 0-81.94-41.59-81.94-82.68 0-21.24 7.27-41.2 20.45-56.22 14.99-17.07 36.82-26.47 61.49-26.47 19.94 0 36.36 5.72 49.13 15.01z" fill="#c9f21d" fill-opacity="1" data-original-color="#000000ff" stroke="none" stroke-opacity="1"/><path d="m1045.02 969.21h-436.84c1.5-1.54 2.97-3.12 4.4-4.75 21.1-24.03 32.06-55.14 32.06-87.02 0-20.46-4.59-40.75-13.44-58.99l71.8-105.64c30.83-2.19 59.71-14.56 81.54-36.58l93.61 29.79c22.57 39.09 63.49 61.95 110.74 61.95 37.01 0 72.04-14.41 96.56-42.36 21.1-24.05 32.04-55.12 32.04-87 0-12.96-1.85-25.9-5.48-38.31l38.16-65.31c41.2-.05 81.92-19.35 106.86-52.37 24.51-32.45 30.61-73.07 19.53-111.99-16.02-56.22-63.56-93.48-122.27-93.48-41.26 0-82.06 19.32-107.02 52.39-24.51 32.46-30.61 73.08-19.52 112 1.69 5.93 3.76 11.74 6.2 17.37l-29.89 51.15c-5.02-.53-10.08-.79-15.17-.79-37.01 0-72.03 14.41-96.56 42.35-2.99 3.41-5.79 6.97-8.38 10.66l-69.37-22.07c-17.1-51.08-63.54-85.73-121.54-85.73-37.02 0-72.03 14.41-96.56 42.35-21.1 24.03-32.05 55.13-32.05 87.01 0 22.06 5.33 43.89 15.56 63.16l-68.79 101.2c-35.22 1.2-68.27 15.54-91.73 42.27-21.09 24.02-32.05 55.12-32.05 86.99 0 9.04.9 18.08 2.68 26.94l-67.65 63.2c-12.96-3.99-26.58-5.92-40.45-5.92-12.98 0-25.7 1.77-37.82 5.28-137.25-17.65-243.66-135.25-243.66-277.23 0-154.22 125.69-279.7 280.2-279.7 32.8 0 64.82 5.74 95.53 17.13 28.86-125.35 141.45-216.57 273.19-216.57 37.82 0 75.56 7.95 110.5 23.15 46.52-118.18 162.7-198.64 291.34-198.64 100.25 0 191.89 46.23 251.44 126.84 53.65 72.66 73.16 161.77 55.29 248.56 102.12 4.78 192.96 65.9 237.52 155.14h-196.58c-38.3 0-69.38 31.07-69.38 69.37v152.57h-215.15c-38.3 0-69.38 31.08-69.38 69.38v112.29zm-764.99-100.02c-98.98 0-179.52-80.52-179.52-179.52 0-62.39 31.74-119.35 84.91-152.39 53.14-33 118.17-36.24 173.98-8.69l97.99 48.42 13-108.52c7.06-58.94 43.2-110.44 96.67-137.77 53.5-27.35 116.46-26.48 168.42 2.32 10.96 6.09 14.92 19.91 8.84 30.88-6.09 10.97-19.91 14.92-30.87 8.84-38.7-21.47-85.71-22.06-125.72-1.61-39.98 20.44-67 58.84-72.25 102.73l-16.83 140.41c-.88 7.33-5.26 13.76-11.74 17.26-6.49 3.52-14.26 3.65-20.87.39l-126.78-62.63c-41.63-20.59-90.19-18.11-129.88 6.54-39.73 24.68-63.46 67.24-63.46 113.81 0 73.94 60.16 134.1 134.09 134.1 12.54 0 22.71 10.17 22.71 22.71s-10.13 22.71-22.69 22.71z" fill="#c9f21d" fill-opacity="1" data-original-color="#000000ff" stroke="none" stroke-opacity="1"/></g></g></g></svg>