<svg id="a" height="300" viewBox="0 0 64 64" width="300" xmlns="http://www.w3.org/2000/svg" data-name="Outline Expand copy" version="1.1" xmlns:xlink="http://www.w3.org/1999/xlink" xmlns:svgjs="http://svgjs.dev/svgjs"><g width="100%" height="100%" transform="matrix(1,0,0,1,0,0)"><path d="m10.19043 60.49561c.90723.95605 2.18359 1.50439 3.50098 1.50439h33.37598c.67969 0 1.29395-.31787 1.68555-.87158.39258-.55713.49023-1.27686.25977-1.92627-.26074-.73145-.37891-1.49121-.35059-2.25635.02344-.61719.1416-1.22656.35059-1.80957.22217-.61987.13525-1.30377-.2207-1.8493v-20.1167c.95044-1.17041 1.52246-2.65985 1.52246-4.28156 0-.16113-.01898-.31531-.03076-.47186.03711-.06787.07855-.13397.10791-.2049l1.09668-2.65918c.31641-.76465.25879-1.55957-.15625-2.18066-.02722-.04065-.06616-.07019-.09595-.10858.54553-.91107 1.09192-1.82178 1.63013-2.73956 1.14844-1.95605 2.26953-4.09961 2.26953-6.89941 0-3.18115-1.32715-6.26074-3.6416-8.44824-2.34863-2.21924-5.43555-3.33838-8.65723-3.15723-5.90149.32556-10.69824 5.19855-10.94818 11.10254h-16.80574c-3.42578 0-6.21289 2.79443-6.21289 6.229v38.46387c0 .18671.06494.35162.15399.50116.19598.80701.57654 1.55896 1.16632 2.17999zm33.31836-26.80176c-2.34161 0-4.29102-1.68591-4.71381-3.90631.25293.06433.51398.10406.77826.10406h8.06152c.19745 0 .39227-.0257.58453-.06232-.43896 2.20038-2.38318 3.86456-4.71051 3.86456zm-1.76331-11.31104-2.20837-8.18848c.79395.33691 1.49316.46631 2.10156.39844.74316-.07568 1.35938-.30713 1.83398-.68799.5127.32324 1.56543.69531 2.94141-.31738.34863-.25488.7002-.5415 1.02734-.82227l-2.23273 9.61768h-3.4632zm1.20276-18.3667c2.6709-.15479 5.22754.77637 7.17188 2.61377 1.94434 1.83789 3.01562 4.32227 3.01562 6.99463 0 2.08252-.73145 3.73535-1.99414 5.88672-.56726.966-1.14154 1.92444-1.71558 2.88245-.03461-.00122-.0658-.01086-.10083-.01086h-2.0647l2.30199-9.93262c.25196-.75342-.02831-1.54688-.69726-1.9751-.66211-.4248-1.49609-.34863-2.05957.18115-.44238.40186-1.02148.91455-1.57422 1.31836-.2334.17236-.54297.35498-.72461.21582-.69531-.51709-1.63379-.47119-2.23438.10938-.16504.15918-.4541.26416-.8457.3042-.19531.02344-.67578-.00635-1.55762-.46289-.65039-.34326-1.4209-.24316-1.95996.2583-.51367.47803-.67773 1.19336-.43066 1.84424l2.19501 8.13916h-1.79071c-.08923 0-.17053.01984-.2569.02759-.14325-.22089-.29303-.44879-.45502-.69507l-.14941-.22754c-.84082-1.27832-1.63477-2.48535-2.25-3.79395-.64258-1.37451-.9502-2.90771-.88965-4.4375.18359-4.91113 4.16504-8.97021 9.06641-9.24023zm-7.22852 21.53662.7937 1.92285h-12.04663c-.45117 0-.81836-.36719-.81836-.81836v-4.76074c0-.45117.36719-.81836.81836-.81836h9.80957c.03217 0 .05933-.01532.0907-.01831.32416.51727.6546 1.02692.98352 1.52661l.19434.2959c.10974.16669.21613.3363.3252.50366-.40808.61908-.4646 1.40747-.15039 2.16675zm-18.55273-10.43115h14.82269c.15271 1.18311.46722 2.34338.97125 3.42139.08551.18182.18188.35687.27313.53516h-8.76727c-1.55371 0-2.81836 1.26416-2.81836 2.81836v4.76074c0 1.5542 1.26465 2.81836 2.81836 2.81836h12.26703c.29913 3.47815 3.22107 6.21826 6.77496 6.21826 1.19025 0 2.30884-.3089 3.2832-.84796v17.50128h-29.625v-37.22559zm-6.29688 41.8924c.08057-1.47076 1.44073-2.66681 3.03711-2.66681h33.15918l.06348.11475c-.19891.55457-.31268 1.13007-.3858 1.71191h-29.03119c-.55273 0-1 .44775-1 1s.44727 1 1 1h29.01624c.07288.57526.20117 1.14386.3988 1.69873.01758.04883.00488.08301-.06055.12744h-33.37597c-.7832 0-1.51074-.31299-2.05078-.88135-.53424-.56232-.8056-1.29999-.77051-2.078v-.02667zm30.42383-19.2381c0 .55225-.44727 1-1 1h-16.0498c-.55273 0-1-.44775-1-1s.44727-1 1-1h16.0498c.55273 0 1 .44775 1 1zm0 4.56934c0 .55225-.44727 1-1 1h-16.0498c-.55273 0-1-.44775-1-1s.44727-1 1-1h16.0498c.55273 0 1 .44775 1 1zm0 4.56934c0 .55225-.44727 1-1 1h-16.0498c-.55273 0-1-.44775-1-1s.44727-1 1-1h16.0498c.55273 0 1 .44775 1 1z" fill="#c9f21d" fill-opacity="1" data-original-color="#000000ff" stroke="none" stroke-opacity="1"/></g></svg>