<svg width="512" height="512" viewBox="0 0 512 512" fill="none" xmlns="http://www.w3.org/2000/svg">
<g clip-path="url(#clip0_3_8)">
<path d="M150.069 432.552L132.414 459.034H379.586L361.931 432.552H150.069Z" fill="#C9F21D"/>
<path d="M388.414 476.69H123.586C118.711 476.69 114.759 480.642 114.759 485.517V503.172C114.759 508.048 118.711 512 123.586 512H388.414C393.289 512 397.241 508.048 397.241 503.172V485.517C397.241 480.642 393.289 476.69 388.414 476.69Z" fill="#C9F21D"/>
<path d="M509.13 179.522C500.567 174.442 489.159 176.948 473.973 188.501C469.976 191.503 466.192 194.777 462.646 198.299C464.422 192.091 466.072 185.869 467.55 179.655C478.328 165.506 484.594 148.438 485.531 130.677C488.746 99.7685 481.479 73.517 472.588 69.3416C463.508 73.4261 455.383 97.205 450.956 125.385C447.967 141.169 448.02 157.379 451.114 173.143C451.057 173.333 450.921 173.474 450.875 173.672C449.407 179.982 447.683 186.305 445.89 192.617C444.74 187.839 443.114 183.188 441.035 178.735C432.995 161.604 423.02 155.401 413.519 155.211C410.772 155.477 408.47 157.403 407.725 160.061C403.534 174.067 404.718 189.132 411.046 202.311C414.704 213.982 422.948 223.666 433.886 229.139C429.561 240.772 424.657 252.339 419.174 263.84C418.659 258.138 417.476 252.516 415.65 247.09C409.283 228.293 399.295 219.968 389.048 217.685C386.229 217.252 383.453 218.682 382.168 221.227C375.841 234.697 375.193 250.143 380.368 264.096C383.073 277.316 390.895 288.93 402.129 296.405C395.869 307.239 389.184 317.757 382.073 327.961C382.387 321.533 381.849 315.092 380.474 308.805C376.06 288.527 366.446 278.085 355.833 273.627C353.073 272.554 349.936 273.418 348.114 275.753C341.008 285.081 337.609 298.696 341.101 318.701C342.551 333.308 349.567 346.797 360.695 356.37C354.729 363.509 345.959 373.353 340.347 379.586H326.621V375.967C326.613 369.445 324.44 363.111 320.441 357.959C316.376 352.815 310.73 349.154 304.375 347.542C296.065 345.486 289.086 339.864 285.308 332.182L282.483 326.621V282.483C280.894 283.542 279.217 284.513 277.539 285.484C264.231 293.253 247.769 293.253 234.461 285.484C232.783 284.513 231.106 283.542 229.517 282.483V326.621L226.692 332.182C222.914 339.864 215.935 345.486 207.625 347.542C194.571 350.799 185.403 362.513 185.379 375.967V379.586H171.65C166.037 373.352 157.267 363.509 151.301 356.37C162.43 346.799 169.447 333.311 170.899 318.705C174.391 298.701 170.992 285.085 163.886 275.757C162.064 273.423 158.927 272.559 156.167 273.631C145.554 278.086 135.943 288.531 131.526 308.809C130.151 315.096 129.613 321.537 129.927 327.965C122.835 317.779 116.148 307.258 109.866 296.402C121.1 288.927 128.923 277.313 131.627 264.093C136.804 250.139 136.156 234.69 129.827 221.219C128.543 218.674 125.766 217.244 122.948 217.677C112.701 219.96 102.712 228.285 96.346 247.082C94.5186 252.51 93.3355 258.133 92.8212 263.836C87.3763 252.405 82.4726 240.836 78.11 229.131C89.0478 223.657 97.2917 213.974 100.95 202.303C107.278 189.124 108.462 174.059 104.271 160.053C103.525 157.395 101.224 155.469 98.4761 155.203C88.9759 155.393 79.0007 161.596 70.9605 178.727C68.882 183.181 67.2555 187.832 66.1054 192.61C64.3125 186.297 62.5885 179.974 61.1204 173.664C61.0754 173.468 60.9377 173.328 60.8803 173.135C63.975 157.371 64.0289 141.161 61.0392 125.377C56.6122 97.197 48.4873 73.4181 39.4116 69.3336C30.5214 73.5091 23.2572 99.7606 26.4686 130.669C27.4062 148.43 33.672 165.498 44.4495 179.647C45.9282 185.861 47.578 192.083 49.3542 198.291C45.8081 194.769 42.0236 191.495 38.0275 188.493C22.844 176.94 11.43 174.434 2.86985 179.514C0.402489 181.747 -0.641781 185.153 0.15007 188.385C2.77302 205.69 12.6724 221.047 27.3505 230.581C41.6424 239.883 53.4969 240.197 61.8664 236.087C66.4417 248.32 71.6129 260.447 77.3297 272.372C72.5124 269.16 67.4309 266.364 62.14 264.014C44.092 255.861 31.2947 255.908 22.7558 262.822C20.457 265.381 19.823 269.03 21.1235 272.215C26.7587 289.047 39.8072 302.362 56.5222 308.337C68.8782 314.343 83.4819 313.409 94.9725 305.878C101.573 317.25 108.617 328.294 116.039 338.901C110.014 336.331 103.752 334.357 97.3418 333.007C77.0851 328.55 63.3821 331.299 55.1962 340.039C53.099 342.918 52.9111 346.767 54.7178 349.837C63.3039 365.835 79.0932 376.696 97.1034 378.992C111.719 382.522 127.126 378.37 137.988 367.973C141.028 371.604 144.634 375.766 148.316 379.941C144.239 380.717 141.277 384.264 141.241 388.414V406.069C141.241 410.944 145.194 414.897 150.069 414.897H361.931C366.806 414.897 370.759 410.944 370.759 406.069V388.414C370.723 384.264 367.762 380.716 363.685 379.939C367.365 375.764 370.971 371.601 374.013 367.969C384.874 378.367 400.281 382.521 414.897 378.992C432.907 376.695 448.696 365.833 457.281 349.835C459.086 346.766 458.898 342.919 456.803 340.041C448.616 331.302 434.91 328.55 414.664 333.007C408.251 334.358 401.986 336.333 395.958 338.904C403.414 328.252 410.439 317.243 417.034 305.878C428.524 313.408 443.128 314.342 455.484 308.337C472.199 302.362 485.247 289.047 490.883 272.215C492.183 269.03 491.549 265.381 489.25 262.822C480.712 255.908 467.914 255.861 449.866 264.014C444.574 266.365 439.491 269.162 434.672 272.374C440.417 260.385 445.572 248.291 450.136 236.093C458.507 240.203 470.361 239.889 484.652 230.586C499.33 221.052 509.23 205.695 511.853 188.39C512.643 185.159 511.598 181.754 509.13 179.522Z" fill="#C9F21D"/>
<path d="M119.172 114.759H134.621C135.065 114.705 135.504 114.617 135.933 114.494L135.945 114.582C145.944 180.209 185.558 237.596 243.377 270.212C251.166 274.803 260.834 274.803 268.623 270.212C326.442 237.596 366.056 180.209 376.055 114.582L376.067 114.494C376.496 114.617 376.935 114.705 377.379 114.759H392.828C419.629 114.728 441.349 93.0088 441.379 66.2069C441.348 39.4054 419.629 17.6863 392.828 17.6552H377.026C376.525 17.7098 376.029 17.81 375.546 17.9544L375.526 17.8317C374.731 13.2414 373.937 9.44552 373.142 6.26759C372.213 2.58685 368.905 0.00576574 365.109 0H146.891C143.095 0.00576574 139.787 2.58685 138.858 6.26759C138.063 9.44552 137.269 13.2414 136.474 17.8317L136.454 17.9544C135.971 17.81 135.475 17.7098 134.974 17.6552H119.172C92.3709 17.6863 70.6518 39.4054 70.6207 66.2069C70.6509 93.0088 92.3705 114.728 119.172 114.759ZM392.828 35.3103C409.879 35.339 423.695 49.1551 423.724 66.2069C423.704 83.2621 409.883 97.083 392.828 97.1034H378.439C380.56 76.5538 380.442 55.8344 378.086 35.3103H392.828ZM97.3789 44.3366C103.132 38.516 110.989 35.2618 119.172 35.3103L133.914 35.3098C131.558 55.8344 131.44 76.5538 133.561 97.1034H119.172C102.117 97.083 88.2963 83.2621 88.2759 66.2069C88.2344 57.987 91.5174 50.0995 97.3789 44.3366Z" fill="#C9F21D"/>
</g>
<defs>
<clipPath id="clip0_3_8">
<rect width="512" height="512" fill="white"/>
</clipPath>
</defs>
</svg>
