<svg id="Layer_1" enable-background="new 0 0 100 100" viewBox="0 0 100 100" xmlns="http://www.w3.org/2000/svg"><g><path d="m96.33002 8.34011h-36.53998v-3.85998c0-1.76001-1.42999-3.19-3.19-3.19h-13.19c-1.76001 0-3.19 1.42999-3.19 3.19v3.85999h-36.54005c-1.54999 0-2.81 1.25-2.81 2.79999v7.25c0 1.54999 1.26001 2.81 2.81 2.81h2.71002v47.65002c0 4.38 3.56 7.94 7.94 7.94h18.51001l-9.1098 19.91962h-5.87994c-.55225 0-1 .44727-1 1s.44775 1 1 1c15.25429.00001 49.05124.0003 64.30664 0 .55225 0 1-.44727 1-1s-.44775-1-1-1h-5.87708l-9.1098-19.91962h18.50995c4.38 0 7.94-3.56 7.94-7.94v-47.65003h2.71002c1.54999 0 2.79999-1.26001 2.79999-2.81v-7.25c0-1.54999-1.25-2.79999-2.79998-2.79999zm-83.35999 4.94001c0-.54999.45001-1 1-1h.88c.54999 0 1 .45001 1 1 0 .56-.45001 1-1 1h-.88c-.54999 0-1-.44001-1-1zm4.95001 0c0-.54999.44-1 1-1h6.20996c.54999 0 1 .45001 1 1 0 .56-.45001 1-1 1h-6.20996c-.55999 0-1-.44001-1-1zm24.29999-8.79999c0-.65002.52997-1.19 1.19-1.19h13.19c.64996 0 1.19.53998 1.19 1.19v3.85999h-15.57zm10.58002 72.30999 9.09979 19.91962h-23.79962l9.09979-19.91962zm38.81995-7.94c0 3.27997-2.66998 5.94-5.94 5.94-14.73943 0-56.53249 0-71.34998 0-3.27997 0-5.94-2.66003-5.94-5.94v-47.65002h83.22998z"/><path d="m61.30005 51.81015v11.28827h-4.68005v-21.59827c0-1.43005-1.15997-2.60004-2.59998-2.60004h-8.03998c-1.42999 0-2.60004 1.16998-2.60004 2.60004v21.59827h-4.66998v-11.57831c0-1.44-1.16998-2.59998-2.59998-2.59998h-8.04004c-1.42999 0-2.59998 1.15997-2.59998 2.59998v11.57831h-2.59729c-.55225 0-1 .44727-1 1s.44775 1 1 1c58.3056.00108 44.24338.00116 54.26172 0 .55225 0 1-.44727 1-1s-.44775-1-1-1h-2.59442v-11.28827c0-1.44-1.17004-2.60004-2.60004-2.60004h-8.03998c-1.43999 0-2.59996 1.16003-2.59996 2.60004zm-12.73004-3.54004c.54999 0 1 .44 1 1v5.08002c0 .54999-.45001 1-1 1-.56 0-1-.45001-1-1v-5.08002c0-.56.44-1 1-1zm-1-2.38001v-.60999c0-.56.44-1 1-1 .54999 0 1 .44 1 1v.60999c0 .54999-.45001 1-1 1-.56 0-1-.45001-1-1z"/><path d="m32.758 44.1824 17.19775-15.59815 17.23486 17.99854c.38215.39926 1.01617.4126 1.41357.03125.39893-.38281.4126-1.01563.03076-1.41406l-17.90771-18.70166c-.37451-.39258-.99268-.41309-1.39404-.04932l-17.91894 16.25293c-.40918.37012-.43994 1.00293-.06885 1.41211.37012.40918 1.00293.44043 1.4126.06836z"/><path d="m14.41815 27.56033h15.24463c.55225 0 1-.44775 1-1s-.44775-1-1-1h-15.24463c-.55225 0-1 .44775-1 1s.44776 1 1 1z"/><path d="m14.41815 33.28836h15.24463c.55225 0 1-.44775 1-1s-.44775-1-1-1h-15.24463c-.55225 0-1 .44775-1 1 0 .55224.44776 1 1 1z"/></g></svg>