<svg width="100" height="98" viewBox="0 0 100 98" fill="none" xmlns="http://www.w3.org/2000/svg">
<path d="M96.3299 7.34011H59.7899V3.48013C59.7899 1.72012 58.3599 0.290131 56.5999 0.290131H43.4099C41.6499 0.290131 40.2199 1.72012 40.2199 3.48013V7.34012H3.67987C2.12988 7.34012 0.869873 8.59012 0.869873 10.1401V17.3901C0.869873 18.9401 2.12988 20.2001 3.67987 20.2001H6.38989V67.8501C6.38989 72.2301 9.94989 75.7901 14.3299 75.7901H32.8399L23.7301 95.7097H17.8502C17.2979 95.7097 16.8502 96.157 16.8502 96.7097C16.8502 97.2625 17.2979 97.7097 17.8502 97.7097C33.1045 97.7098 66.9014 97.71 82.1568 97.7097C82.7091 97.7097 83.1568 97.2625 83.1568 96.7097C83.1568 96.157 82.7091 95.7097 82.1568 95.7097H76.2797L67.1699 75.7901H85.6799C90.0599 75.7901 93.6199 72.2301 93.6199 67.8501V20.2001H96.3299C97.8799 20.2001 99.1299 18.9401 99.1299 17.3901V10.1401C99.1299 8.59011 97.8799 7.34011 96.3299 7.34011ZM12.9699 12.2801C12.9699 11.7301 13.4199 11.2801 13.9699 11.2801H14.8499C15.3999 11.2801 15.8499 11.7301 15.8499 12.2801C15.8499 12.8401 15.3999 13.2801 14.8499 13.2801H13.9699C13.4199 13.2801 12.9699 12.8401 12.9699 12.2801ZM17.9199 12.2801C17.9199 11.7301 18.3599 11.2801 18.9199 11.2801H25.1299C25.6799 11.2801 26.1299 11.7301 26.1299 12.2801C26.1299 12.8401 25.6799 13.2801 25.1299 13.2801H18.9199C18.3599 13.2801 17.9199 12.8401 17.9199 12.2801ZM42.2199 3.48013C42.2199 2.83011 42.7499 2.29013 43.4099 2.29013H56.5999C57.2499 2.29013 57.7899 2.83011 57.7899 3.48013V7.34012H42.2199V3.48013ZM52.7999 75.7901L61.8997 95.7097H38.1001L47.1999 75.7901H52.7999ZM91.6199 67.8501C91.6199 71.1301 88.9499 73.7901 85.6799 73.7901C70.9405 73.7901 29.1474 73.7901 14.3299 73.7901C11.0499 73.7901 8.3899 71.1301 8.3899 67.8501V20.2001H91.6199V67.8501Z" fill="#C9F21D"/>
<path d="M61.2999 50.8102V62.0984H56.6198V40.5002C56.6198 39.0701 55.4599 37.9001 54.0198 37.9001H45.9799C44.5499 37.9001 43.3798 39.0701 43.3798 40.5002V62.0984H38.7098V50.5201C38.7098 49.0801 37.5399 47.9201 36.1099 47.9201H28.0698C26.6398 47.9201 25.4698 49.0801 25.4698 50.5201V62.0984H22.8726C22.3203 62.0984 21.8726 62.5457 21.8726 63.0984C21.8726 63.6512 22.3203 64.0984 22.8726 64.0984C81.1782 64.0995 67.1159 64.0996 77.1343 64.0984C77.6865 64.0984 78.1343 63.6512 78.1343 63.0984C78.1343 62.5457 77.6865 62.0984 77.1343 62.0984H74.5399V50.8102C74.5399 49.3702 73.3698 48.2101 71.9398 48.2101H63.8998C62.4598 48.2101 61.2999 49.3701 61.2999 50.8102ZM48.5698 47.2701C49.1198 47.2701 49.5698 47.7101 49.5698 48.2701V53.3501C49.5698 53.9001 49.1198 54.3501 48.5698 54.3501C48.0098 54.3501 47.5698 53.9001 47.5698 53.3501V48.2701C47.5698 47.7101 48.0098 47.2701 48.5698 47.2701ZM47.5698 44.8901V44.2801C47.5698 43.7201 48.0098 43.2801 48.5698 43.2801C49.1198 43.2801 49.5698 43.7201 49.5698 44.2801V44.8901C49.5698 45.4401 49.1198 45.8901 48.5698 45.8901C48.0098 45.8901 47.5698 45.4401 47.5698 44.8901Z" fill="#C9F21D"/>
<path d="M32.7579 43.1824L49.9557 27.5842L67.1905 45.5828C67.5727 45.982 68.2067 45.9954 68.6041 45.614C69.003 45.2312 69.0167 44.5984 68.6348 44.2L50.7271 25.4983C50.3526 25.1057 49.7345 25.0852 49.3331 25.449L31.4142 41.7019C31.005 42.072 30.9742 42.7049 31.3453 43.114C31.7154 43.5232 32.3482 43.5545 32.7579 43.1824Z" fill="#C9F21D"/>
<path d="M14.418 26.5603H29.6626C30.2148 26.5603 30.6626 26.1126 30.6626 25.5603C30.6626 25.0081 30.2148 24.5603 29.6626 24.5603H14.418C13.8657 24.5603 13.418 25.0081 13.418 25.5603C13.418 26.1126 13.8657 26.5603 14.418 26.5603Z" fill="#C9F21D"/>
<path d="M14.418 32.2884H29.6626C30.2148 32.2884 30.6626 31.8406 30.6626 31.2884C30.6626 30.7361 30.2148 30.2884 29.6626 30.2884H14.418C13.8657 30.2884 13.418 30.7361 13.418 31.2884C13.418 31.8406 13.8657 32.2884 14.418 32.2884Z" fill="#C9F21D"/>
</svg>
