<svg width="512" height="512" viewBox="0 0 512 512" fill="none" xmlns="http://www.w3.org/2000/svg">
<path fill-rule="evenodd" clip-rule="evenodd" d="M286.323 29.141L316.809 51.961C325.147 58.202 333.923 61.396 344.322 61.975L382.343 64.09C405.11 65.356 423.601 80.871 428.801 103.073L437.487 140.15C439.862 150.29 444.532 158.378 452.126 165.505L479.893 191.566C496.519 207.17 500.71 230.941 490.424 251.291L473.245 285.276C468.547 294.571 466.925 303.768 468.161 314.109L472.681 351.921C475.387 374.562 463.318 395.465 442.358 404.442L407.352 419.434C397.778 423.534 390.624 429.537 384.924 438.253L364.081 470.123C351.601 489.206 328.919 497.461 307.093 490.865L270.641 479.849C260.672 476.836 251.333 476.836 241.363 479.849L204.911 490.865C183.085 497.461 160.403 489.206 147.923 470.123L127.08 438.253C121.379 429.537 114.225 423.534 104.652 419.434L69.644 404.44C48.684 395.463 36.615 374.56 39.321 351.919L43.841 314.107C45.077 303.766 43.455 294.569 38.757 285.274L21.578 251.289C11.292 230.94 15.483 207.169 32.109 191.564L59.876 165.503C67.47 158.376 72.139 150.288 74.514 140.148L83.2 103.071C88.4 80.87 106.891 65.355 129.658 64.088L167.679 61.973C178.078 61.395 186.854 58.2 195.192 51.959L225.678 29.139C243.931 15.477 268.069 15.477 286.323 29.141ZM236.553 269.06L203.469 235.976C194.894 227.401 180.985 227.401 172.411 235.976C163.836 244.551 163.836 258.459 172.411 267.034L221.072 315.694C229.647 324.268 243.556 324.269 252.13 315.694C281.46 286.363 310.458 256.703 339.653 227.238C348.166 218.646 348.139 204.782 339.558 196.249C330.976 187.714 317.072 187.738 308.55 196.345L236.553 269.06ZM256 92.454C210.839 92.454 169.952 110.76 140.356 140.356C110.76 169.953 92.454 210.839 92.454 256C92.454 301.161 110.76 342.048 140.356 371.644C169.952 401.24 210.839 419.546 256 419.546C301.161 419.546 342.048 401.24 371.644 371.644C401.24 342.048 419.546 301.161 419.546 256C419.546 210.839 401.24 169.952 371.644 140.356C342.048 110.76 301.161 92.454 256 92.454ZM360.331 151.669C333.631 124.969 296.744 108.454 256 108.454C215.256 108.454 178.369 124.969 151.669 151.669C124.969 178.369 108.454 215.256 108.454 256C108.454 296.744 124.969 333.631 151.669 360.331C178.369 387.031 215.256 403.546 256 403.546C296.744 403.546 333.631 387.031 360.331 360.332C387.031 333.632 403.545 296.745 403.545 256.001C403.546 215.256 387.031 178.369 360.331 151.669Z" fill="#C9F21D"/>
</svg>
