<svg id="Layer_1" enable-background="new 0 0 512 512" viewBox="0 0 512 512" xmlns="http://www.w3.org/2000/svg" width="300" height="300" version="1.1" xmlns:xlink="http://www.w3.org/1999/xlink" xmlns:svgjs="http://svgjs.dev/svgjs"><g width="100%" height="100%" transform="matrix(1,0,0,1,0,0)"><path d="m440.188 283.306-42.887-74.281c1.31-1.535 3.049-2.729 5.12-3.446 11.206-3.879 20.317-13.647 24.373-26.128s2.426-25.739-4.359-35.465c-2.867-4.109-2.868-9.214-.001-13.323 6.786-9.725 8.417-22.983 4.361-35.464-4.055-12.481-13.167-22.25-24.373-26.129-4.735-1.64-7.736-5.77-7.832-10.778-.227-11.856-6.7-23.541-17.317-31.254-10.618-7.715-23.731-10.262-35.077-6.813-4.795 1.458-9.649-.12-12.671-4.116-7.152-9.461-19.257-15.108-32.38-15.109-.001 0-.001 0-.002 0-13.123 0-25.229 5.647-32.381 15.105-3.022 3.997-7.875 5.574-12.67 4.118-11.346-3.447-24.459-.901-35.077 6.812-10.617 7.714-17.092 19.398-17.319 31.254-.096 5.01-3.096 9.141-7.83 10.779-11.207 3.879-20.318 13.647-24.374 26.128s-2.426 25.74 4.359 35.466c2.867 4.109 2.868 9.214.001 13.322-6.786 9.725-8.417 22.983-4.361 35.464 4.055 12.482 13.167 22.25 24.373 26.13 2.071.717 3.81 1.911 5.12 3.446l-42.887 74.282c-2.22 3.847-2.015 8.493.536 12.125 2.551 3.633 6.853 5.403 11.226 4.618l41.646-7.468 14.356 39.804c1.508 4.178 5.192 7.017 9.613 7.409.347.031.691.046 1.033.046 4.022 0 7.688-2.1 9.735-5.645l37.111-64.278c5.405 2.41 11.476 3.729 17.79 3.729 6.314 0 12.386-1.319 17.791-3.729l37.111 64.28c2.047 3.543 5.711 5.643 9.733 5.643.343 0 .688-.016 1.036-.046 4.421-.394 8.104-3.234 9.612-7.413l14.355-39.8 41.647 7.468c4.371.785 8.674-.985 11.226-4.62 2.551-3.632 2.755-8.279.534-12.123zm-143.045-110.52c17.975 0 34.368 8.993 44.134 23.833-12.327 9.199-27.605 14.652-44.134 14.652s-31.807-5.453-44.134-14.652c9.765-14.84 26.158-23.833 44.134-23.833zm27.229-10.412c8.389-7.498 13.683-18.391 13.683-30.501 0-22.559-18.353-40.913-40.912-40.913s-40.913 18.354-40.913 40.913c0 12.11 5.294 23.004 13.683 30.501-11.401 4.904-21.345 12.868-28.731 23.205-11.192-12.962-17.985-29.824-17.985-48.253 0-40.773 33.172-73.945 73.945-73.945s73.945 33.172 73.945 73.945c0 18.429-6.792 35.291-17.984 48.253-7.386-10.337-17.331-18.301-28.731-23.205zm-90.908 155.025-13.2-36.598c-1.323-3.669-5.099-5.854-8.938-5.16l-38.294 6.867 29.969-51.908c2.948 6.529 7.752 12.462 14.011 17.01 10.617 7.715 23.729 10.26 35.076 6.813 4.797-1.458 9.65.121 12.671 4.116.5.661 1.03 1.299 1.577 1.922zm149.494-41.757c-3.837-.694-7.614 1.491-8.938 5.16l-13.2 36.597-32.872-56.937c.547-.623 1.076-1.26 1.576-1.921 3.022-3.996 7.874-5.573 12.67-4.117 11.347 3.448 24.458.902 35.076-6.812 6.26-4.548 11.064-10.481 14.012-17.011l29.969 51.908zm15.271 73.963c-8.361-2.24-17.07-1.104-24.526 3.2l-77.912 44.982c-.718-3.779-2.065-7.46-4.038-10.908-4.645-8.119-12.138-13.935-21.099-16.373l-90.668-24.678c-12.749-3.47-26.428.012-39.562 10.069l-22.011 16.857-.289-1.076c-1.907-7.115-9.247-11.352-16.36-9.447l-21.572 5.78c-3.441.922-6.32 3.134-8.107 6.228s-2.262 6.693-1.34 10.134l31.277 116.727c1.598 5.961 7.009 9.902 12.907 9.901 1.141 0 2.301-.147 3.454-.456l21.573-5.78c7.114-1.906 11.352-9.246 9.445-16.361l-.869-3.244c12.088-8.783 22.913-11.112 36.459-8.006l51.933 11.906c4.646 1.064 9.174 1.597 13.576 1.597 9.144-.001 17.737-2.296 25.661-6.87l129.874-74.981c15.436-8.912 20.744-28.723 11.833-44.162-4.304-7.457-11.279-12.798-19.639-15.039zm-.194 45.343-129.874 74.982c-8.239 4.756-17.288 5.913-27.662 3.534l-51.933-11.906c-16.206-3.713-30.263-1.479-44.41 7.27l-21.262-79.35 27.259-20.876c9.148-7.007 17.771-9.475 25.632-7.335l90.668 24.678c4.837 1.317 8.89 4.471 11.413 8.881 2.522 4.41 3.187 9.502 1.87 14.34-2.739 10.062-13.154 16.016-23.218 13.282l-48.433-13.183c-4.264-1.162-8.661 1.354-9.82 5.618-1.16 4.263 1.355 8.659 5.618 9.819l48.433 13.183c3.058.833 6.133 1.229 9.161 1.229 13.983 0 26.929-8.478 32.326-21.703l87.901-50.749c3.753-2.166 8.151-2.737 12.384-1.602 4.232 1.134 7.756 3.826 9.922 7.58 4.501 7.8 1.821 17.807-5.975 22.308z" fill="#c9f21d" fill-opacity="1" data-original-color="#000000ff" stroke="none" stroke-opacity="1"/></g></svg>