<svg width="394" height="394" viewBox="0 0 394 394" fill="none" xmlns="http://www.w3.org/2000/svg">
<path fill-rule="evenodd" clip-rule="evenodd" d="M61.5625 24.625C34.3625 24.625 12.3125 46.675 12.3125 73.875V135.438C12.3125 162.638 34.3625 184.688 61.5625 184.688H153.906C181.106 184.688 203.156 162.638 203.156 135.438V73.875C203.156 46.675 181.106 24.625 153.906 24.625H61.5625ZM36.9375 135.438V98.5H178.531V135.438C178.531 149.037 167.506 160.062 153.906 160.062H61.5625C47.9625 160.062 36.9375 149.037 36.9375 135.438Z" fill="#C9F21D"/>
<path d="M269.066 65.0371C285.387 53.6124 307.812 65.2882 307.812 85.2105V124.102C307.812 144.024 285.387 155.7 269.066 144.275L241.286 124.83C227.281 115.026 227.281 94.286 241.286 84.4828L269.066 65.0371Z" fill="#C9F21D"/>
<path d="M124.934 249.725C108.613 238.3 86.1875 249.976 86.1875 269.898V308.789C86.1875 328.712 108.613 340.388 124.934 328.963L152.714 309.517C166.719 299.714 166.719 278.974 152.714 269.17L124.934 249.725Z" fill="#C9F21D"/>
<path fill-rule="evenodd" clip-rule="evenodd" d="M240.094 209.312C212.894 209.312 190.844 231.362 190.844 258.562V320.125C190.844 347.325 212.894 369.375 240.094 369.375H332.438C359.638 369.375 381.688 347.325 381.688 320.125V258.562C381.688 231.362 359.638 209.312 332.438 209.312H240.094ZM215.469 283.188V320.125C215.469 333.725 226.494 344.75 240.094 344.75H332.438C346.037 344.75 357.062 333.725 357.062 320.125V283.188H215.469Z" fill="#C9F21D"/>
</svg>
