<svg xmlns="http://www.w3.org/2000/svg" viewBox="0 0 64 64" width="300" height="300" version="1.1" xmlns:xlink="http://www.w3.org/1999/xlink" xmlns:svgjs="http://svgjs.dev/svgjs"><g width="100%" height="100%" transform="matrix(1,0,0,1,0,0)"><g id="Learning-2" data-name="Learning"><path d="M48,18a4,4,0,0,0-4-4H43a5.006,5.006,0,0,0-5,5v3H49.531A5.98,5.98,0,0,1,48,18Z" fill="#c9f21d" fill-opacity="1" data-original-color="#000000ff" stroke="none" stroke-opacity="1"/><path d="M60,4H10v8H44a6.006,6.006,0,0,1,6,6,4,4,0,0,0,4,4h1a5.006,5.006,0,0,0,5-5Z" fill="#c9f21d" fill-opacity="1" data-original-color="#000000ff" stroke="none" stroke-opacity="1"/><path d="M32.667,31.292a13.016,13.016,0,0,0-1.94-2.9,14.95,14.95,0,0,1-5.073,2.858A47.263,47.263,0,0,1,26,37a47.335,47.335,0,0,1-.344,5.744,14.832,14.832,0,0,1,2.344,1V39a1,1,0,0,1,1-1h3.929L30.15,35.222a1,1,0,0,1,0-1.414Z" fill="#c9f21d" fill-opacity="1" data-original-color="#000000ff" stroke="none" stroke-opacity="1"/><circle cx="45" cy="43" r="3" fill="#c9f21d" fill-opacity="1" data-original-color="#000000ff" stroke="none" stroke-opacity="1"/><path d="M23.985,38h-5.97c.031,1.569.132,2.987.283,4.252a14.583,14.583,0,0,1,5.4,0C23.853,40.988,23.954,39.569,23.985,38Z" fill="#c9f21d" fill-opacity="1" data-original-color="#000000ff" stroke="none" stroke-opacity="1"/><path d="M4,60H36V57.977a.905.905,0,0,1-.192-.128L30.15,52.192a1,1,0,0,1,0-1.414L32.929,48H31.167a14.992,14.992,0,1,1,2.982-18.191l1.659-1.658A.905.905,0,0,1,36,28.023V19a6.973,6.973,0,0,1,2.111-5H7a3,3,0,0,0-3,3Z" fill="#c9f21d" fill-opacity="1" data-original-color="#000000ff" stroke="none" stroke-opacity="1"/><path d="M45,36a7,7,0,1,0,7,7A7.008,7.008,0,0,0,45,36Zm0,12a5,5,0,1,1,5-5A5.006,5.006,0,0,1,45,48Z" fill="#c9f21d" fill-opacity="1" data-original-color="#000000ff" stroke="none" stroke-opacity="1"/><path d="M55.36,46.665A1,1,0,0,1,56.3,46H60V40H56.3a1,1,0,0,1-.943-.665,11.258,11.258,0,0,0-.443-1.068,1,1,0,0,1,.2-1.137l2.616-2.615-4.244-4.243L50.87,32.887a1,1,0,0,1-1.139.2,10.607,10.607,0,0,0-1.065-.443A1,1,0,0,1,48,31.7V28H42v3.7a1,1,0,0,1-.666.943,10.607,10.607,0,0,0-1.065.443,1,1,0,0,1-1.139-.2l-2.615-2.615-4.244,4.243,2.616,2.615a1,1,0,0,1,.2,1.137,11.258,11.258,0,0,0-.443,1.068A1,1,0,0,1,33.7,40H30v6h3.7a1,1,0,0,1,.943.665,11.258,11.258,0,0,0,.443,1.068,1,1,0,0,1-.2,1.137l-2.616,2.615,4.244,4.243,2.615-2.615a1,1,0,0,1,1.139-.2,10.607,10.607,0,0,0,1.065.443A1,1,0,0,1,42,54.3V58h6V54.3a1,1,0,0,1,.666-.943,10.607,10.607,0,0,0,1.065-.443,1,1,0,0,1,1.139.2l2.615,2.615,4.244-4.243L55.113,48.87a1,1,0,0,1-.2-1.137A11.258,11.258,0,0,0,55.36,46.665ZM45,52a9,9,0,1,1,9-9A9.01,9.01,0,0,1,45,52Z" fill="#c9f21d" fill-opacity="1" data-original-color="#000000ff" stroke="none" stroke-opacity="1"/><path d="M18.591,44.228C19.282,48.042,20.405,50,21,50s1.717-1.957,2.408-5.768a12.726,12.726,0,0,0-4.817,0Z" fill="#c9f21d" fill-opacity="1" data-original-color="#000000ff" stroke="none" stroke-opacity="1"/><path d="M8.051,36h7.963a46.232,46.232,0,0,1,.332-4.752A14.944,14.944,0,0,1,11.28,28.4,12.926,12.926,0,0,0,8.051,36Z" fill="#c9f21d" fill-opacity="1" data-original-color="#000000ff" stroke="none" stroke-opacity="1"/><path d="M16.65,44.764A12.963,12.963,0,0,0,12.71,47a12.951,12.951,0,0,0,5.46,2.676A18.036,18.036,0,0,1,16.65,44.764Z" fill="#c9f21d" fill-opacity="1" data-original-color="#000000ff" stroke="none" stroke-opacity="1"/><path d="M11.28,45.6a14.944,14.944,0,0,1,5.066-2.851A46.232,46.232,0,0,1,16.014,38H8.051A12.926,12.926,0,0,0,11.28,45.6Z" fill="#c9f21d" fill-opacity="1" data-original-color="#000000ff" stroke="none" stroke-opacity="1"/><path d="M28,47v-.936a12.887,12.887,0,0,0-2.649-1.306,18.08,18.08,0,0,1-1.519,4.92,12.881,12.881,0,0,0,4.489-1.952A.991.991,0,0,1,28,47Z" fill="#c9f21d" fill-opacity="1" data-original-color="#000000ff" stroke="none" stroke-opacity="1"/><path d="M16.65,29.236a18.036,18.036,0,0,1,1.52-4.916A12.951,12.951,0,0,0,12.71,27,12.963,12.963,0,0,0,16.65,29.236Z" fill="#c9f21d" fill-opacity="1" data-original-color="#000000ff" stroke="none" stroke-opacity="1"/><path d="M18.015,36h5.97c-.031-1.569-.132-2.987-.283-4.252a14.612,14.612,0,0,1-5.4,0C18.147,33.013,18.046,34.431,18.015,36Z" fill="#c9f21d" fill-opacity="1" data-original-color="#000000ff" stroke="none" stroke-opacity="1"/><path d="M29.289,27a12.971,12.971,0,0,0-5.463-2.686,18.032,18.032,0,0,1,1.524,4.925A12.988,12.988,0,0,0,29.289,27Z" fill="#c9f21d" fill-opacity="1" data-original-color="#000000ff" stroke="none" stroke-opacity="1"/><path d="M23.409,29.772C22.718,25.958,21.6,24,21,24s-1.718,1.958-2.409,5.772a12.84,12.84,0,0,0,4.818,0Z" fill="#c9f21d" fill-opacity="1" data-original-color="#000000ff" stroke="none" stroke-opacity="1"/></g></g></svg>