<svg id="Layer_1" viewBox="0 0 512 512" xmlns="http://www.w3.org/2000/svg" data-name="Layer 1" width="300" height="300" version="1.1" xmlns:xlink="http://www.w3.org/1999/xlink" xmlns:svgjs="http://svgjs.dev/svgjs"><g width="100%" height="100%" transform="matrix(1,0,0,1,0,0)"><path d="m62.437 133.427c0-26.175 21.295-47.471 47.471-47.471s47.471 21.295 47.471 47.471-21.273 47.448-47.43 47.47c-.014 0-.028 0-.042 0-.017 0-.033 0-.05 0-26.152-.028-47.419-21.312-47.419-47.47zm148.071 287.939-11.798-22.19c-.773-1.454-1.816-2.329-3.381-2.837l-5.252-1.707-26.748 66.484 33.278-6.397 21.172 26.461 18.388-54.834-5.676 2.293c-7.564 3.056-16.154-.072-19.983-7.273zm45.416-249.507h.076.078c39.367-.042 71.382-32.08 71.382-71.457s-32.056-71.458-71.458-71.458-71.458 32.056-71.458 71.458 32.014 71.414 71.381 71.457zm-94.048 35.829c-15.053-10.846-33.266-16.781-51.928-16.79-.014 0-.027 0-.041 0-.013 0-.026 0-.04 0-47.327.02-86.127 37.213-88.73 83.906h98.447c7.499-26.266 22.403-49.436 42.292-67.115zm240.215-16.831c-.013 0-.026 0-.039 0-.014 0-.028 0-.042 0-18.665.009-36.881 5.943-51.937 16.787 19.914 17.685 34.837 40.871 42.342 67.16h98.446c-2.599-46.718-41.418-83.926-88.77-83.947zm-146.013-8.998c-.026 0-.051.002-.077.002s-.052-.002-.078-.002c-70.988.041-129.033 56.472-131.668 126.836h25.503c.667-3.729 2.667-7.22 5.869-9.723l19.804-15.472c1.297-1.014 1.978-2.192 2.207-3.823l3.498-24.887c1.135-8.077 8.122-13.956 16.29-13.67l25.116.877c1.649.059 2.925-.408 4.148-1.509l18.676-16.817c6.062-5.458 15.204-5.458 21.266 0s18.676 16.816 18.676 16.816c1.223 1.102 2.506 1.573 4.147 1.51l25.117-.877c8.161-.277 15.155 5.593 16.29 13.67l3.498 24.887c.229 1.63.91 2.809 2.207 3.823l19.804 15.472c3.203 2.502 5.203 5.994 5.87 9.723h25.502c-2.635-70.364-60.678-126.794-131.665-126.836zm60.592 214.48c-1.565.508-2.608 1.383-3.38 2.836l-11.799 22.19c-2.839 5.34-8.297 8.44-14.012 8.44-1.993 0-4.016-.376-5.971-1.167l-5.676-2.293 18.389 54.834 21.171-26.46 33.278 6.397-26.747-66.484zm-42.138-82.546c-4.133 0-7.762-2.641-9.033-6.576l-9.5-29.431-9.5 29.43c-1.271 3.936-4.9 6.576-9.034 6.577h-.019l-30.924-.059 25.054 18.129c3.356 2.429 4.745 6.706 3.457 10.643l-9.613 29.393 24.984-18.226c1.673-1.22 3.634-1.831 5.595-1.831s3.921.61 5.595 1.832l24.984 18.225-9.613-29.393c-1.288-3.937.102-8.213 3.458-10.642l25.053-18.129-30.925.059h-.02zm77.051.823-13.318 21.312c-2.226 3.561-2.941 7.615-2.068 11.725l5.226 24.583c.629 2.958-1.066 5.893-3.941 6.827l-23.902 7.766c-3.995 1.298-7.149 3.945-9.12 7.653l-11.798 22.19c-1.42 2.669-4.604 3.83-7.408 2.696l-23.302-9.415c-1.947-.787-3.95-1.18-5.953-1.18s-4.006.394-5.953 1.18l-23.301 9.415c-2.801 1.134-5.988-.026-7.408-2.696l-11.798-22.19c-1.972-3.708-5.126-6.355-9.12-7.653l-23.902-7.766c-2.876-.934-4.571-3.869-3.942-6.827l5.226-24.583c.874-4.108.159-8.163-2.067-11.725l-13.318-21.313c-1.603-2.564-1.014-5.901 1.369-7.763l19.804-15.472c3.31-2.586 5.369-6.151 5.953-10.312l3.498-24.887c.421-2.995 3.03-5.175 6.039-5.067l25.116.877c4.191.14 8.067-1.261 11.188-4.072l18.676-16.817c2.247-2.023 5.636-2.023 7.883 0l18.676 16.816c3.121 2.811 6.987 4.214 11.188 4.073l25.117-.877c3.034-.118 5.618 2.073 6.039 5.067l3.498 24.886c.583 4.159 2.642 7.724 5.953 10.312l19.804 15.472c2.383 1.862 2.972 5.199 1.369 7.764zm-35.51-4.326c-1.276-3.925-4.902-6.559-9.026-6.559h-.021l-32.125.062-9.868-30.571c-1.27-3.935-4.901-6.578-9.034-6.578s-7.765 2.644-9.034 6.577l-9.868 30.572-32.124-.062h-.021c-4.125 0-7.751 2.634-9.027 6.561-1.276 3.932.116 8.201 3.464 10.624l26.025 18.833-9.986 30.534c-1.285 3.929.099 8.201 3.443 10.631 1.67 1.213 3.625 1.819 5.58 1.819s3.922-.61 5.595-1.83l25.953-18.932 25.953 18.932c3.34 2.437 7.831 2.441 11.176.011 3.344-2.43 4.728-6.702 3.443-10.631l-9.986-30.533 26.025-18.832c3.349-2.423 4.741-6.693 3.464-10.625zm85.936-129.434h.041.052c26.165-.028 47.443-21.322 47.443-47.492s-21.306-47.494-47.494-47.494-47.494 21.306-47.494 47.494 21.283 47.47 47.452 47.493z" fill="#c9f21d" fill-opacity="1" data-original-color="#000000ff" stroke="none" stroke-opacity="1"/></g></svg>