<svg width="238" height="266" viewBox="0 0 238 266" fill="none" xmlns="http://www.w3.org/2000/svg">
<path d="M71.5 161.5H14.5C6.64208 161.5 0.25 167.892 0.25 175.75V251.75C0.25 259.608 6.64208 266 14.5 266H71.5C79.3579 266 85.75 259.608 85.75 251.75V175.75C85.75 167.892 79.3579 161.5 71.5 161.5ZM66.75 213.75C66.75 216.373 64.6255 218.5 62 218.5H24C21.3745 218.5 19.25 216.373 19.25 213.75C19.25 211.127 21.3745 209 24 209H62C64.6255 209 66.75 211.127 66.75 213.75ZM66.75 194.75C66.75 197.373 64.6255 199.5 62 199.5H24C21.3745 199.5 19.25 197.373 19.25 194.75C19.25 192.127 21.3745 190 24 190H62C64.6255 190 66.75 192.127 66.75 194.75ZM66.75 232.75C66.75 235.373 64.6255 237.5 62 237.5H24C21.3745 237.5 19.25 235.373 19.25 232.75C19.25 230.127 21.3745 228 24 228H62C64.6255 228 66.75 230.127 66.75 232.75ZM223.5 161.5H166.5C158.642 161.5 152.25 167.892 152.25 175.75V251.75C152.25 259.608 158.642 266 166.5 266H223.5C231.358 266 237.75 259.608 237.75 251.75V175.75C237.75 167.892 231.358 161.5 223.5 161.5ZM218.75 213.75C218.75 216.373 216.625 218.5 214 218.5H176C173.375 218.5 171.25 216.373 171.25 213.75C171.25 211.127 173.375 209 176 209H214C216.625 209 218.75 211.127 218.75 213.75ZM218.75 194.75C218.75 197.373 216.625 199.5 214 199.5H176C173.375 199.5 171.25 197.373 171.25 194.75C171.25 192.127 173.375 190 176 190H214C216.625 190 218.75 192.127 218.75 194.75ZM218.75 232.75C218.75 235.373 216.625 237.5 214 237.5H176C173.375 237.5 171.25 235.373 171.25 232.75C171.25 230.127 173.375 228 176 228H214C216.625 228 218.75 230.127 218.75 232.75ZM138 209H132.375C130.94 204.976 127.774 201.81 123.75 200.375V142.02C133.041 140.126 140.376 132.791 142.27 123.5H161.75C187.94 123.5 209.25 102.192 209.25 76C209.25 50.0745 188.371 28.9314 162.548 28.5069C155.061 11.3207 137.972 0 119 0C100.028 0 82.9389 11.3207 75.4521 28.5069C49.6287 28.9314 28.75 50.0745 28.75 76C28.75 102.192 50.0601 123.5 76.25 123.5H95.7301C97.6241 132.791 104.959 140.126 114.25 142.02V200.375C110.226 201.81 107.06 204.976 105.625 209H100C97.3745 209 95.25 211.127 95.25 213.75C95.25 216.373 97.3745 218.5 100 218.5H105.626C107.593 224.017 112.816 228 119 228C125.184 228 130.408 224.017 132.375 218.5H138C140.625 218.5 142.75 216.373 142.75 213.75C142.75 211.127 140.625 209 138 209ZM38.25 76C38.25 55.0471 55.2971 38 76.25 38C76.9644 37.9884 77.6834 37.9977 78.3977 38.0394C80.6057 38.1299 82.4519 36.8658 83.1524 34.8712C88.4869 19.6958 102.895 9.5 119 9.5C135.106 9.5 149.513 19.6958 154.848 34.8712C155.553 36.8658 157.413 38.1299 159.602 38.0394C160.317 37.9977 161.031 37.9907 161.75 38C182.703 38 199.75 55.0471 199.75 76C199.75 96.9529 182.703 114 161.75 114H142.27C140.711 106.354 135.457 100.052 128.47 96.9969L138.575 86.8916C141.266 84.2012 142.75 80.6201 142.75 76.8141V57C142.75 54.3768 140.626 52.25 138 52.25C135.375 52.25 133.25 54.3768 133.25 57V76.8141C133.25 78.0828 132.754 79.2772 131.859 80.1748L123.75 88.2832V42.75C123.75 40.1268 121.626 38 119 38C116.375 38 114.25 40.1268 114.25 42.75V64.5332L106.142 56.4248C105.246 55.5273 104.75 54.3328 104.75 53.0641V33.25C104.75 30.6268 102.626 28.5 100 28.5C97.3747 28.5 95.2501 30.6268 95.2501 33.25V53.0641C95.2501 56.8701 96.7345 60.4512 99.425 63.1416L114.25 77.9668V95.4801C104.959 97.3741 97.6243 104.709 95.7302 114H76.2501C55.2973 114 38.25 96.9529 38.25 76ZM119 218.5C116.379 218.5 114.25 216.369 114.25 213.75C114.25 211.131 116.379 209 119 209C121.621 209 123.75 211.131 123.75 213.75C123.75 216.369 121.621 218.5 119 218.5Z" fill="#C9F21D"/>
</svg>
