<svg id="Layer_5" enable-background="new 0 0 62 59" height="300" viewBox="0 0 62 59" width="300" xmlns="http://www.w3.org/2000/svg" version="1.1" xmlns:xlink="http://www.w3.org/1999/xlink" xmlns:svgjs="http://svgjs.dev/svgjs"><g width="100%" height="100%" transform="matrix(1,0,0,1,0,0)"><g><path d="m44.871 5h5.129v3h10v-8h-10v3h-7.13z" fill="#c9f21d" fill-opacity="1" data-original-color="#000000ff" stroke="none" stroke-opacity="1"/><path d="m44.635 28.407-1.09-2.196.284-.47c.779-1.287 1.356-2.681 1.718-4.144l.131-.533 2.322-.782v-4.563l-2.322-.782-.131-.533c-.361-1.463-.938-2.857-1.718-4.144l-.284-.47 1.09-2.196-3.228-3.227-2.196 1.09-.47-.285c-1.288-.779-2.683-1.357-4.145-1.717l-.533-.132-.782-2.323h-4.563l-.782 2.322-.533.132c-1.462.36-2.856.938-4.145 1.717l-.47.285-2.196-1.09-3.228 3.227 1.09 2.196-.284.47c-.779 1.287-1.356 2.681-1.718 4.144l-.131.533-2.321.782v4.563l2.322.782.131.533c.361 1.463.938 2.857 1.718 4.144l.284.47-1.09 2.196 3.228 3.228 2.196-1.09.47.285c1.287.779 2.682 1.356 4.145 1.718l.533.131.782 2.322h4.563l.782-2.322.533-.131c1.463-.361 2.857-.938 4.145-1.718l.47-.285 2.196 1.09zm.365-11.407c.552 0 1 .448 1 1s-.448 1-1 1-1-.448-1-1 .448-1 1-1zm-28 2c-.552 0-1-.448-1-1s.448-1 1-1 1 .448 1 1-.448 1-1 1zm23.192-11.607c.391-.391 1.024-.391 1.414 0 .391.391.391 1.024 0 1.414-.391.391-1.024.391-1.414 0-.39-.39-.39-1.023 0-1.414zm-9.192-4.393c.552 0 1 .448 1 1s-.448 1-1 1-1-.448-1-1 .448-1 1-1zm-10.607 4.393c.391-.391 1.024-.391 1.414 0 .391.391.391 1.024 0 1.414-.391.391-1.024.391-1.414 0-.39-.39-.39-1.023 0-1.414zm1.415 21.214c-.391.391-1.024.391-1.414 0-.391-.391-.391-1.024 0-1.414.391-.391 1.024-.391 1.414 0 .39.39.39 1.023 0 1.414zm9.192-.607c-5.523 0-10-4.477-10-10s4.477-10 10-10 10 4.477 10 10-4.477 10-10 10zm9.192.607c-.391-.391-.391-1.024 0-1.414.391-.391 1.024-.391 1.414 0 .391.391.391 1.024 0 1.414-.39.39-1.023.39-1.414 0z" fill="#c9f21d" fill-opacity="1" data-original-color="#000000ff" stroke="none" stroke-opacity="1"/><path d="m28 37h6v2h-6z" fill="#c9f21d" fill-opacity="1" data-original-color="#000000ff" stroke="none" stroke-opacity="1"/><path d="m28 56c0 1.654 1.346 3 3 3s3-1.346 3-3v-15h-6z" fill="#c9f21d" fill-opacity="1" data-original-color="#000000ff" stroke="none" stroke-opacity="1"/><path d="m31 12c-3.314 0-6 2.686-6 6s2.686 6 6 6 6-2.686 6-6-2.686-6-6-6zm0 8c-1.105 0-2-.895-2-2s.895-2 2-2 2 .895 2 2-.895 2-2 2z" fill="#c9f21d" fill-opacity="1" data-original-color="#000000ff" stroke="none" stroke-opacity="1"/><path d="m52 14v3h-2v2h2v3h10v-8z" fill="#c9f21d" fill-opacity="1" data-original-color="#000000ff" stroke="none" stroke-opacity="1"/><path d="m50 31h-5.129l-2 2h7.129v3h10v-8h-10z" fill="#c9f21d" fill-opacity="1" data-original-color="#000000ff" stroke="none" stroke-opacity="1"/><path d="m46 45h-4v-9h-2v11h6v3h10v-8h-10z" fill="#c9f21d" fill-opacity="1" data-original-color="#000000ff" stroke="none" stroke-opacity="1"/><path d="m10 19h2v-2h-2v-3h-10v8h10z" fill="#c9f21d" fill-opacity="1" data-original-color="#000000ff" stroke="none" stroke-opacity="1"/><path d="m12 33h7.129l-2-2h-5.129v-3h-10v8h10z" fill="#c9f21d" fill-opacity="1" data-original-color="#000000ff" stroke="none" stroke-opacity="1"/><path d="m12 5h5.129l2.001-2h-7.13v-3h-10v8h10z" fill="#c9f21d" fill-opacity="1" data-original-color="#000000ff" stroke="none" stroke-opacity="1"/><path d="m20 45h-4v-3h-10v8h10v-3h6v-11h-2z" fill="#c9f21d" fill-opacity="1" data-original-color="#000000ff" stroke="none" stroke-opacity="1"/></g></g></svg>