<svg enable-background="new 0 0 64 64" viewBox="0 0 64 64" xmlns="http://www.w3.org/2000/svg" width="300" height="300" version="1.1" xmlns:xlink="http://www.w3.org/1999/xlink" xmlns:svgjs="http://svgjs.dev/svgjs"><g width="100%" height="100%" transform="matrix(1,0,0,1,0,0)"><g id="Layer_1"/><g id="Layer_2"><g><g><path d="m41.3400269 34.2699585h-4.3800049c-.2600098-.8399658-.6000366-1.6699829-1.0200195-2.4699707l3.0999756-3.0999756c.3800049-.3800049.3800049-.9900513 0-1.3700562l-4.9699707-4.9599609c-.3565063-.3807697-.9979782-.3815002-1.3599854.000021 0-.000021-3.1000366 3.0999546-3.1000366 3.0999546-.7999878-.4199829-1.6300049-.7600098-2.4799805-1.0199585v-4.3900146c0-.5300293-.4299927-.9700317-.960022-.9700317h-7.0199585c-.5400391 0-.9700317.4400024-.9700317.9700317v4.3900146c-.8499756.2599487-1.6799927.5999756-2.4799805 1.0199585l-3.1000366-3.0999756c-.355052-.3808727-1.0050335-.3815346-1.3599854.0000229 0-.0000229-4.9699707 4.959938-4.9699707 4.959938-.3730259.3618107-.368084 1.012434.00001 1.3700562-.00001 0 3.0999656 3.0999756 3.0999656 3.0999756-.4099731.7999878-.7600098 1.6300049-1.0200195 2.4699707h-4.3800049c-.539978 0-.9699707.4400024-.9699707.9700317v7.0200195c0 .5299683.4299927.9699707.9699707.9699707h4.3800049c.2600098.8400269.6100464 1.6699829 1.0200195 2.4700317l-3.0999756 3.0999756c-.3730621.3618889-.3680539 1.0123787.00001 1.3699951-.00001 0 4.9699607 4.960022 4.9699607 4.960022.3599854.3599854 1 .3599854 1.3599854 0l3.1000366-3.1000366c.7999878.420044 1.6300049.7600098 2.4799805 1.0200196v4.3900146c0 .5299683.4299927.9599609.9700317.9599609h7.0199585c.5300293 0 .960022-.4299927.960022-.9599609v-4.3900146c.8499756-.2600098 1.6799927-.5999756 2.4799805-1.0200195l3.1000366 3.1000366c.3599854.3599854 1 .3599854 1.3599854 0l4.9699707-4.960022c.3800049-.3800049.3800049-.9899902 0-1.3699951l-3.0999756-3.0999756c.4199829-.8000488.7600098-1.6300049 1.0200195-2.4700317h4.3800049c.539978 0 .9699707-.4400024.9699707-.9699707v-7.0200195c0-.5300294-.4299927-.9700318-.9699707-.9700318zm-18.6800538 14.7900391c-5.6900024 0-10.3199463-4.6300049-10.3199463-10.3099976.5630941-13.6725426 20.0664215-13.6789742 20.6299629.0000763-.000019 5.6799164-4.6299628 10.3099213-10.3100166 10.3099213z" fill="#c9f21d" fill-opacity="1" data-original-color="#000000ff" stroke="none" stroke-opacity="1"/><path d="m22.6599731 47.1300049c-4.6199951 0-8.3799438-3.7600098-8.3799438-8.3800049.4222059-11.0974236 16.3334198-11.1038456 16.7500095.0001068-.0000095 4.6198883-3.7500095 8.3798981-8.3700657 8.3798981z" fill="#c9f21d" fill-opacity="1" data-original-color="#000000ff" stroke="none" stroke-opacity="1"/><path d="m61 6.5599976v23.8800049c0 .539978-.4299927.9699707-.9699707.9699707h-18.3100586c-1.2594147-.0010319-1.279129-1.9259815.0000648-1.9299889-.0000648-.0000038 17.3499718-.0000038 17.3499718-.0000038v-21.9500122h-41.6799927v9.3900146c0 .539978-.4299927.9700317-.960022.9700317-.539978 0-.9699707-.4300537-.9699707-.9700317v-9.3900146h-10.5300292v17.6000366c-.0129642 1.2575741-1.9141865 1.2628155-1.9299855-.0000496-.0000072.0000496-.0000072-18.5699577-.0000072-18.5699577 0-.5300293.4299927-.960022.9699707-.960022h56.0600586c.539978 0 .9699707.4299927.9699707.960022z" fill="#c9f21d" fill-opacity="1" data-original-color="#000000ff" stroke="none" stroke-opacity="1"/></g><path d="m54.2333336 14.6000004h-22.2333336c-1.2569237-.0038643-1.2697754-1.9280787.0000687-1.9333286-.0000687-.0000048 22.2332649-.0000048 22.2332649-.0000048 1.2569237.0038633 1.2697754 1.9280777 0 1.9333334z" fill="#c9f21d" fill-opacity="1" data-original-color="#000000ff" stroke="none" stroke-opacity="1"/><path d="m54.2333336 20.3999996h-12.5666657c-.5338402 0-.9666672-.4323559-.9666672-.9666672 0-.5343094.432827-.9666653.9666672-.9666653h12.5666656c1.2602311.0044671 1.2671777 1.9281541.0000001 1.9333325z" fill="#c9f21d" fill-opacity="1" data-original-color="#000000ff" stroke="none" stroke-opacity="1"/></g></g></g></svg>