<svg id="Solid" height="300" viewBox="0 0 64 64" width="300" xmlns="http://www.w3.org/2000/svg" version="1.1" xmlns:xlink="http://www.w3.org/1999/xlink" xmlns:svgjs="http://svgjs.dev/svgjs"><g width="100%" height="100%" transform="matrix(1,0,0,1,0,0)"><g><path d="m47 20c0-1.654-1.346-3-3-3h-8.088c-.488-1.133-1.117-2.209-1.918-3.17l-1.226-1.471c-.38-.455-1.156-.455-1.536 0l-1.226 1.471c-.801.961-1.431 2.037-1.918 3.17h-8.088c-1.654 0-3 1.346-3 3v18c0 1.654 1.346 3 3 3h6.821c-.319.884-1.044 1.595-1.981 1.862l-2.193.626c-1.558.447-2.647 1.89-2.647 3.512 0 .553.448 1 1 1h22c.552 0 1-.447 1-1 0-1.622-1.089-3.065-2.648-3.512l-2.192-.626c-.937-.268-1.662-.979-1.981-1.862h6.821c1.654 0 3-1.346 3-3zm-15 4c1.513 0 2.755-1.129 2.958-2.587.073 1.041.016 2.094-.214 3.126l-.546 2.461h-4.396l-.547-2.461c-.23-1.033-.286-2.085-.214-3.126.204 1.458 1.446 2.587 2.959 2.587zm-4.571 1.538.547 2.462h-2.499l.194-.486c.339-.847.971-1.534 1.758-1.976zm9.142 0c.787.442 1.419 1.128 1.758 1.975l.194.487h-2.499zm-5.029-10.427.458-.549.458.549c1.128 1.353 1.891 2.959 2.269 4.653-.473-1.038-1.514-1.764-2.727-1.764s-2.254.726-2.726 1.764c.377-1.693 1.14-3.299 2.268-4.653zm-12.542 22.889v-18c0-.552.449-1 1-1h7.396c-.365 1.46-.485 2.981-.331 4.49-1.47.618-2.654 1.792-3.251 3.282l-.743 1.857c-.123.308-.085.657.101.932s.496.439.828.439h4.469l-.439 1.758c-.075.299-.007.615.182.857.189.243.48.385.788.385v.169c-.555.195-1.037.549-1.389 1.015-.355-.122-.729-.184-1.111-.184-1.93 0-3.5 1.57-3.5 3.5 0 .539.133 1.044.351 1.5h-3.351c-.551 0-1-.448-1-1zm6-.5c0-.827.673-1.5 1.5-1.5.421 0 .737.183.928.336.269.216.63.274.955.164.325-.113.569-.387.646-.723.104-.458.503-.777.971-.777.552 0 1-.447 1-1v-1h2v1.277c0 .358.191.688.502.867.311.18.693.177 1.001-.003.688-.4 1.5.116 1.487.931 0 .003-.008.06-.008.062-.052.404.146.8.501.999.324.183.517.507.517.867 0 .552-.449 1-1 1h-9.5c-.827 0-1.5-.673-1.5-1.5zm20 .5c0 .552-.449 1-1 1h-5.184c.112-.314.184-.648.184-1 0-.859-.375-1.67-1.009-2.233-.119-1.545-1.415-2.767-2.991-2.767.308 0 .599-.142.788-.385.189-.242.257-.559.182-.857l-.439-1.758h4.469c.332 0 .642-.165.828-.439s.224-.624.101-.932l-.743-1.857c-.596-1.49-1.781-2.664-3.25-3.282.153-1.509.034-3.03-.331-4.49h7.395c.551 0 1 .448 1 1z" fill="#c9f21d" fill-opacity="1" data-original-color="#000000ff" stroke="none" stroke-opacity="1"/><path d="m61.383 51.591c-.375-.157-.804-.07-1.09.217l-1.414 1.414-6.364-6.363c-.391-.391-1.023-.391-1.414 0l-4.243 4.242c-.188.188-.293.441-.293.707s.105.52.293.707l6.364 6.364-1.415 1.414c-.286.286-.372.716-.217 1.09.156.373.52.617.925.617h8.485c.552 0 1-.447 1-1v-8.485c0-.405-.244-.77-.617-.924z" fill="#c9f21d" fill-opacity="1" data-original-color="#000000ff" stroke="none" stroke-opacity="1"/><path d="m61 2h-8.485c-.404 0-.769.244-.924.617-.155.374-.069.804.217 1.09l1.415 1.414-6.364 6.364c-.188.188-.293.441-.293.707s.105.52.293.707l4.243 4.242c.195.195.451.293.707.293s.512-.098.707-.293l6.364-6.363 1.414 1.414c.286.286.715.373 1.09.217.372-.154.616-.519.616-.924v-8.485c0-.553-.448-1-1-1z" fill="#c9f21d" fill-opacity="1" data-original-color="#000000ff" stroke="none" stroke-opacity="1"/><path d="m12.899 46.858c-.391-.391-1.023-.391-1.414 0l-6.364 6.363-1.414-1.414c-.287-.287-.716-.374-1.09-.217-.373.155-.617.52-.617.925v8.485c0 .553.448 1 1 1h8.485c.404 0 .769-.244.924-.617.155-.374.069-.804-.217-1.09l-1.415-1.414 6.364-6.364c.188-.188.293-.441.293-.707s-.105-.52-.293-.707z" fill="#c9f21d" fill-opacity="1" data-original-color="#000000ff" stroke="none" stroke-opacity="1"/><path d="m2.617 12.409c.374.156.803.069 1.09-.217l1.414-1.414 6.364 6.363c.195.195.451.293.707.293s.512-.098.707-.293l4.243-4.242c.188-.188.293-.441.293-.707s-.105-.52-.293-.707l-6.364-6.364 1.415-1.414c.286-.286.372-.716.217-1.09-.156-.373-.52-.617-.925-.617h-8.485c-.552 0-1 .447-1 1v8.485c0 .405.244.77.617.924z" fill="#c9f21d" fill-opacity="1" data-original-color="#000000ff" stroke="none" stroke-opacity="1"/><path d="m56.625 27.219c-.301-.24-.712-.287-1.058-.12-.347.167-.567.516-.567.901v1h-4c-.552 0-1 .447-1 1v4c0 .553.448 1 1 1h4v1c0 .385.22.734.567.901.138.067.286.099.433.099.223 0 .444-.074.625-.219l5-4c.237-.19.375-.477.375-.781s-.138-.591-.375-.781z" fill="#c9f21d" fill-opacity="1" data-original-color="#000000ff" stroke="none" stroke-opacity="1"/><path d="m7.375 36.781c.181.145.402.219.625.219.147 0 .295-.032.433-.099.347-.167.567-.516.567-.901v-1h4c.552 0 1-.447 1-1v-4c0-.553-.448-1-1-1h-4v-1c0-.385-.22-.734-.567-.901-.345-.166-.757-.119-1.058.12l-5 4c-.237.19-.375.477-.375.781s.138.591.375.781z" fill="#c9f21d" fill-opacity="1" data-original-color="#000000ff" stroke="none" stroke-opacity="1"/><path d="m36 55h-1v-4c0-.553-.448-1-1-1h-4c-.552 0-1 .447-1 1v4h-1c-.384 0-.735.221-.901.566-.167.347-.12.758.121 1.059l4 5c.189.237.476.375.78.375s.591-.138.781-.375l4-5c.24-.301.287-.712.121-1.059-.167-.345-.518-.566-.902-.566z" fill="#c9f21d" fill-opacity="1" data-original-color="#000000ff" stroke="none" stroke-opacity="1"/><path d="m28 9h8c.384 0 .735-.221.901-.566.167-.347.12-.758-.121-1.059l-4-5c-.379-.475-1.183-.475-1.562 0l-4 5c-.24.301-.287.712-.121 1.059.168.345.519.566.903.566z" fill="#c9f21d" fill-opacity="1" data-original-color="#000000ff" stroke="none" stroke-opacity="1"/></g></g></svg>