<svg height="300" viewBox="0 0 64 64" width="300" xmlns="http://www.w3.org/2000/svg" version="1.1" xmlns:xlink="http://www.w3.org/1999/xlink" xmlns:svgjs="http://svgjs.dev/svgjs"><g width="100%" height="100%" transform="matrix(1,0,0,1,0,0)"><g id="software-application-app-data-currency"><path d="m50 12h2.78l-.5 2h3.44l-.5-2h2.78a1 1 0 0 0 1-1v-6a1 1 0 0 0 -1-1h-8a1 1 0 0 0 -1 1v6a1 1 0 0 0 1 1z" fill="#c9f21d" fill-opacity="1" data-original-color="#000000ff" stroke="none" stroke-opacity="1"/><path d="m48 59a1 1 0 0 0 1 1h10a1 1 0 0 0 1-1v-1h-12z" fill="#c9f21d" fill-opacity="1" data-original-color="#000000ff" stroke="none" stroke-opacity="1"/><path d="m12 27h18v18h-18z" fill="#c9f21d" fill-opacity="1" data-original-color="#000000ff" stroke="none" stroke-opacity="1"/><path d="m22.59 19h-17.18l6 6h17.18z" fill="#c9f21d" fill-opacity="1" data-original-color="#000000ff" stroke="none" stroke-opacity="1"/><path d="m4 37.59 6 6v-17.18l-6-6z" fill="#c9f21d" fill-opacity="1" data-original-color="#000000ff" stroke="none" stroke-opacity="1"/><path d="m58 49h-8a1 1 0 0 0 -1 1v6h10v-6a1 1 0 0 0 -1-1z" fill="#c9f21d" fill-opacity="1" data-original-color="#000000ff" stroke="none" stroke-opacity="1"/><path d="m48 26.73v2.27c0 .71 2.28 2 6 2s6-1.29 6-2v-2.27a13.159 13.159 0 0 1 -6 1.27 13.159 13.159 0 0 1 -6-1.27z" fill="#c9f21d" fill-opacity="1" data-original-color="#000000ff" stroke="none" stroke-opacity="1"/><path d="m48 31.73v3.27c0 .71 2.28 2 6 2s6-1.29 6-2v-3.27a13.159 13.159 0 0 1 -6 1.27 13.159 13.159 0 0 1 -6-1.27z" fill="#c9f21d" fill-opacity="1" data-original-color="#000000ff" stroke="none" stroke-opacity="1"/><ellipse cx="54" cy="24" rx="6" ry="2" fill="#c9f21d" fill-opacity="1" data-original-color="#000000ff" stroke="none" stroke-opacity="1"/><path d="m48 37.73v2.27c0 .71 2.28 2 6 2s6-1.29 6-2v-2.27a13.159 13.159 0 0 1 -6 1.27 13.159 13.159 0 0 1 -6-1.27z" fill="#c9f21d" fill-opacity="1" data-original-color="#000000ff" stroke="none" stroke-opacity="1"/><path d="m16 8h27v-2h-28a1 1 0 0 0 -1 1v8h2z" fill="#c9f21d" fill-opacity="1" data-original-color="#000000ff" stroke="none" stroke-opacity="1"/><path d="m16 49h-2v8a1 1 0 0 0 1 1h28v-2h-27z" fill="#c9f21d" fill-opacity="1" data-original-color="#000000ff" stroke="none" stroke-opacity="1"/><path d="m34 31h10v2h-10z" fill="#c9f21d" fill-opacity="1" data-original-color="#000000ff" stroke="none" stroke-opacity="1"/></g></g></svg>