<svg id="Layer_1" viewBox="0 0 512 512" xmlns="http://www.w3.org/2000/svg" data-name="Layer 1" width="300" height="300" version="1.1" xmlns:xlink="http://www.w3.org/1999/xlink" xmlns:svgjs="http://svgjs.dev/svgjs"><g width="100%" height="100%" transform="matrix(1,0,0,1,0,0)"><path d="m345.553 198.271a7.214 7.214 0 0 0 -8.769 0l-22.369 17.157a7.218 7.218 0 0 0 -2.82 5.722v173.2a7.2 7.2 0 0 0 7.2 7.2h44.737a7.2 7.2 0 0 0 7.2-7.2v-31.6a92.349 92.349 0 0 1 -4.804-148.85l-20.375-15.628zm-75.353 30.214a7.211 7.211 0 0 0 -8.768 0l-22.369 17.156a7.222 7.222 0 0 0 -2.82 5.723v142.982a7.2 7.2 0 0 0 7.2 7.2h44.737a7.2 7.2 0 0 0 7.2-7.2v-142.982a7.218 7.218 0 0 0 -2.819-5.723zm-85.067-14.141a7.227 7.227 0 0 0 -8.769 0l-22.364 17.156a7.222 7.222 0 0 0 -2.82 5.723v157.123a7.2 7.2 0 0 0 7.2 7.2h44.737a7.2 7.2 0 0 0 7.2-7.2v-157.123a7.216 7.216 0 0 0 -2.817-5.723l-22.367-17.157zm-106.961 187.206h44.738a7.2 7.2 0 0 0 7.2-7.2v-84.139a7.217 7.217 0 0 0 -2.82-5.722l-22.368-17.156a7.2 7.2 0 0 0 -8.769 0l-22.364 17.156a7.218 7.218 0 0 0 -2.82 5.722v84.135a7.2 7.2 0 0 0 7.2 7.2zm20.152-138.135a24.906 24.906 0 1 1 15.8-44.151l46.33-31.864a24.9 24.9 0 1 1 47.762-14l35 6.916a24.9 24.9 0 0 1 44.806-4.3l29.828-23.6a25 25 0 1 1 8.752 11.445l-35.238 27.89a24.9 24.9 0 0 1 -48.875 3.109l-35-6.917a24.881 24.881 0 0 1 -38.677 11.2l-46.662 32.09a24.907 24.907 0 0 1 -23.82 32.182zm333.576 157.462a7.2 7.2 0 0 1 -.127 10.354l-17.958 16.95a7.2 7.2 0 1 1 -9.89-10.477l4.775-4.504h-375.349a7.2 7.2 0 0 1 -7.2-7.2v-339.448l-4.826 4.869a7.2 7.2 0 1 1 -10.238-10.138l17.147-17.3a7.19 7.19 0 0 1 5.117-2.129h.088a7.179 7.179 0 0 1 5.151 2.254l16.948 17.957a7.2 7.2 0 1 1 -10.478 9.891l-4.505-4.775v331.607h368.768l-4.869-4.826a7.2 7.2 0 1 1 10.142-10.23l17.3 17.145zm-8.879-54.34a79.982 79.982 0 1 1 79.979-79.976 80.069 80.069 0 0 1 -79.982 79.976zm-7.68-138.124a7.2 7.2 0 0 0 14.408 0v-10.6a7.2 7.2 0 1 0 -14.408 0zm83.629 57.664a7.208 7.208 0 0 0 -7.2-7.2h-10.6a7.2 7.2 0 1 0 0 14.408h10.6a7.2 7.2 0 0 0 7.2-7.2zm-68.27 58.623a7.2 7.2 0 0 0 -14.409 0v10.6a7.2 7.2 0 0 0 14.409 0zm-65.822-50.459h-10.606a7.2 7.2 0 0 1 0-14.409h10.605a7.2 7.2 0 0 1 0 14.409zm81.961-64.3a7.2 7.2 0 1 0 12.477 7.2l2.5-4.332a7.2 7.2 0 0 0 -12.478-7.2l-2.5 4.333zm22.48 29.342a7.212 7.212 0 0 0 6.245 3.6 7.13 7.13 0 0 0 3.6-.968l4.333-2.5a7.206 7.206 0 0 0 -7.2-12.484l-4.333 2.5a7.214 7.214 0 0 0 -2.637 9.849zm17.287 63.438a7.2 7.2 0 0 0 -2.637-9.84l-4.333-2.5a7.2 7.2 0 1 0 -7.2 12.473l4.332 2.5a7.2 7.2 0 0 0 9.841-2.634zm-23.962 17.1-2.5-4.332a7.206 7.206 0 1 0 -12.476 7.214l2.5 4.333a7.206 7.206 0 1 0 12.477-7.215zm-63.444 3.354a7.2 7.2 0 0 0 -12.477-7.2l-2.5 4.333a7.2 7.2 0 0 0 12.478 7.2l2.5-4.333zm-22.48-29.341a7.213 7.213 0 0 1 -2.638 9.849l-4.332 2.5a7.207 7.207 0 0 1 -7.2-12.484l4.333-2.5a7.213 7.213 0 0 1 9.841 2.635zm-17.289-63.434a7.2 7.2 0 0 1 9.84-2.635l4.333 2.5a7.2 7.2 0 1 1 -7.2 12.474l-4.333-2.5a7.2 7.2 0 0 1 -2.637-9.839zm23.969-17.119 2.5 4.333a7.2 7.2 0 1 0 12.478-7.2l-2.5-4.333a7.2 7.2 0 0 0 -12.477 7.2zm31.644 66.855a7.2 7.2 0 0 0 14.409 0v-6.136h25.129a7.2 7.2 0 0 0 0-14.409h-25.134v-31.469a7.2 7.2 0 0 0 -14.408 0v31.471h-5.186a7.2 7.2 0 0 0 0 14.409h5.185z" fill-rule="evenodd" fill="#c9f21d" fill-opacity="1" data-original-color="#000000ff" stroke="none" stroke-opacity="1"/></g></svg>